<?xml version="1.0" encoding="utf-8"?>
<!-- Generator: Adobe Illustrator 25.1.0, SVG Export Plug-In . SVG Version: 6.00 Build 0)  -->
<svg version="1.1" xmlns="http://www.w3.org/2000/svg" xmlns:xlink="http://www.w3.org/1999/xlink" x="0px" y="0px"
	 viewBox="0 0 500 500" style="enable-background:new 0 0 500 500;" xml:space="preserve">
<style type="text/css">
	.st0{fill:#FAFAFA;}
	.st1{fill:#E0E0E0;}
	.st2{fill:#EBEBEB;}
	.st3{fill:#F5F5F5;}
	.st4{fill:#263238;}
	.st5{opacity:0.6;}
	.st6{display:none;}
	.st7{display:inline;}
	.st8{fill:#FF725E;}
	.st9{fill:#455A64;}
	.st10{fill:#FFFFFF;}
	.st11{opacity:0.3;}
	.st12{fill:#FFBE9D;}
	.st13{fill:#EB996E;}
</style>
<g id="Background_Complete">
	<g>
		<g>
			<circle class="st0" cx="92.5" cy="152.8" r="34.8"/>
		</g>
		<g>
			<g>
				<g>
					<g>
						<g>
							<path class="st1" d="M127.7,152.7c-0.1,0-0.2-0.8-0.3-2.2c0-0.7-0.1-1.6-0.3-2.7c-0.2-1.1-0.3-2.3-0.8-3.6
								c-0.6-2.7-1.9-5.9-3.9-9.2c-2-3.3-4.9-6.8-8.7-9.8c-3.9-2.9-8.8-5.5-14.4-6.5c-5.6-1-12-0.9-18,1.4c-3,1-6,2.6-8.7,4.6
								c-1.4,0.9-2.6,2.1-3.9,3.3c-1.2,1.3-2.4,2.5-3.4,3.9c-4.3,5.6-6.7,12.7-6.9,20.1c0,7.4,2.3,14.6,6.4,20.3
								c1,1.5,2.2,2.7,3.3,4c1.3,1.2,2.5,2.4,3.8,3.4c2.7,2.1,5.6,3.7,8.6,4.8c6,2.4,12.3,2.7,18,1.8c5.7-0.9,10.6-3.3,14.6-6.2
								c4-2.9,6.9-6.3,9-9.6c2.1-3.3,3.4-6.5,4.1-9.1c0.4-1.3,0.6-2.5,0.8-3.6c0.2-1,0.3-1.9,0.4-2.7
								C127.5,153.5,127.6,152.7,127.7,152.7c0.1,0,0.1,0.8,0.1,2.3c0,0.7,0,1.7-0.2,2.7c-0.1,1.1-0.3,2.3-0.7,3.7
								c-0.6,2.8-1.9,6-3.9,9.5c-2,3.5-5,7.1-9.1,10.2c-4.1,3-9.2,5.6-15.1,6.7c-5.9,1-12.6,0.8-18.9-1.7c-3.2-1.1-6.3-2.8-9.1-5
								c-1.5-1-2.7-2.3-4.1-3.5c-1.2-1.4-2.5-2.7-3.5-4.2c-4.4-5.9-6.8-13.6-6.8-21.4c0.2-7.8,2.8-15.4,7.3-21.2
								c1.1-1.5,2.4-2.8,3.6-4.1c1.4-1.2,2.7-2.4,4.1-3.4c2.9-2.1,6-3.7,9.2-4.8c6.4-2.3,13.1-2.4,18.9-1.2c5.9,1.2,11,3.9,15,7
								c4,3.2,6.9,6.9,8.8,10.4c1.9,3.5,3.1,6.8,3.7,9.6c0.4,1.4,0.5,2.6,0.6,3.7c0.2,1.1,0.2,2,0.2,2.7
								C127.8,151.9,127.7,152.7,127.7,152.7z"/>
						</g>
					</g>
				</g>
			</g>
			<g>
				<g>
					<g>
						<g>
							<path class="st1" d="M120.3,130.8c0.1,0.1-0.5,0.7-1.8,1.6c-0.7,0.5-1.4,1-2.2,1.7c-0.4,0.3-0.9,0.7-1.4,1
								c-0.5,0.3-1.1,0.6-1.7,0.9c-4.7,2.8-12.1,5.6-20.6,5.5c-1.1,0-2.1-0.1-3.1-0.1c-1-0.1-2-0.3-3-0.4c-0.5-0.1-1-0.1-1.5-0.2
								c-0.5-0.1-0.9-0.2-1.4-0.4c-0.9-0.2-1.8-0.4-2.7-0.7c-3.5-1.2-6.5-2.5-8.8-3.9c-4.7-2.8-7.1-5.4-6.9-5.5
								c0.2-0.2,2.8,1.9,7.5,4.3c2.4,1.2,5.3,2.4,8.7,3.4c0.8,0.2,1.7,0.4,2.6,0.6c0.4,0.1,0.9,0.2,1.4,0.3c0.5,0.1,0.9,0.1,1.4,0.2
								c0.9,0.1,1.9,0.3,2.9,0.4c1,0,2,0.1,3,0.1c8.1,0.2,15.2-2.3,19.9-4.7c0.6-0.3,1.2-0.5,1.7-0.8c0.5-0.3,1-0.6,1.5-0.9
								c0.9-0.5,1.7-1,2.4-1.4C119.5,131.1,120.3,130.7,120.3,130.8z"/>
						</g>
					</g>
				</g>
			</g>
			<g>
				<g>
					<g>
						<g>
							<path class="st1" d="M64.7,174.3c-0.1-0.1,0.5-0.7,1.8-1.6c0.7-0.5,1.4-1,2.2-1.7c0.4-0.3,0.9-0.7,1.4-1
								c0.5-0.3,1.1-0.6,1.7-0.9c4.7-2.8,12.1-5.6,20.6-5.5c1.1,0,2.1,0.1,3.1,0.1c1,0.1,2,0.3,3,0.4c0.5,0.1,1,0.1,1.5,0.2
								c0.5,0.1,0.9,0.2,1.4,0.4c0.9,0.2,1.8,0.4,2.7,0.7c3.5,1.2,6.5,2.5,8.8,3.9c4.7,2.8,7.1,5.4,6.9,5.5
								c-0.2,0.2-2.8-1.9-7.5-4.3c-2.4-1.2-5.3-2.4-8.7-3.4c-0.8-0.2-1.7-0.4-2.6-0.6c-0.4-0.1-0.9-0.2-1.4-0.3
								c-0.5-0.1-0.9-0.1-1.4-0.2c-0.9-0.1-1.9-0.3-2.9-0.4c-1,0-2-0.1-3-0.1c-8.1-0.2-15.2,2.3-20,4.7c-0.6,0.3-1.2,0.5-1.7,0.8
								c-0.5,0.3-1,0.6-1.5,0.9c-0.9,0.5-1.7,1-2.4,1.4C65.5,174,64.7,174.4,64.7,174.3z"/>
						</g>
					</g>
				</g>
			</g>
			<g>
				<g>
					<g>
						<g>
							<path class="st1" d="M127.6,153.5c0,0.5-15.7,0.8-35.2,0.6c-19.4-0.2-35.1-0.8-35.1-1.4c0-0.5,15.7-0.8,35.2-0.6
								C111.9,152.4,127.7,153,127.6,153.5z"/>
						</g>
					</g>
				</g>
			</g>
			<g>
				<g>
					<g>
						<g>
							<path class="st1" d="M91.3,187.4c-0.5,0-0.8-15.7-0.6-35.1c0.2-19.4,0.8-35.1,1.4-35.1c0.5,0,0.8,15.7,0.6,35.1
								C92.5,171.7,91.8,187.4,91.3,187.4z"/>
						</g>
					</g>
				</g>
			</g>
			<g>
				<g>
					<g>
						<g>
							<path class="st1" d="M91.3,187.4c-0.1,0.2-4-2.4-8.6-8.3c-2.2-2.9-4.6-6.7-6.4-11.3c-1.8-4.6-3-10-2.9-15.7
								c0-5.7,1.4-11.1,3.4-15.6c1.9-4.5,4.4-8.2,6.7-11.1c4.7-5.8,8.5-8.4,8.7-8.2c0.2,0.2-3.3,3.1-7.6,9c-2.1,2.9-4.4,6.6-6.2,11
								c-1.8,4.4-3,9.5-3.1,15c0,5.5,1,10.6,2.6,15.1c1.7,4.4,3.8,8.2,5.9,11.2C88,184.2,91.5,187.1,91.3,187.4z"/>
						</g>
					</g>
				</g>
			</g>
			<g>
				<g>
					<g>
						<g>
							<path class="st1" d="M92.9,117.1c0.1-0.2,4,2.4,8.6,8.3c2.2,2.9,4.6,6.7,6.4,11.3c1.8,4.6,3,10,2.9,15.7
								c0,5.7-1.4,11.1-3.4,15.6c-1.9,4.5-4.4,8.2-6.7,11.1c-4.7,5.8-8.5,8.4-8.7,8.2c-0.2-0.2,3.3-3.1,7.6-9
								c2.1-2.9,4.4-6.6,6.2-11c1.8-4.4,3-9.5,3.1-15c0-5.5-1-10.6-2.6-15.1c-1.7-4.4-3.8-8.2-5.9-11.2
								C96.2,120.3,92.7,117.3,92.9,117.1z"/>
						</g>
					</g>
				</g>
			</g>
		</g>
	</g>
	<g>
		<g>
			<path class="st2" d="M92.1,186.3c0.1,0,0.3,5.1,0.3,11.3c0,6.3-0.1,11.3-0.3,11.3c-0.1,0-0.3-5.1-0.3-11.3
				C91.8,191.4,91.9,186.3,92.1,186.3z"/>
		</g>
	</g>
	<g>
		<g>
			<path class="st2" d="M118.7,97.2c0,0-0.2,0-0.5,0.1c-0.4,0-0.8,0-1.3,0c-1.2,0-2.9,0-4.9,0.1c-4.1,0-9.9,0.1-16.2,0.1
				c-1.4,0-2.8,0-4.1,0l0.3-0.3c0,5.3-0.1,10-0.1,13.4c0,1.6-0.1,3-0.1,4c0,0.9-0.1,1.4-0.1,1.4c0,0-0.1-0.5-0.1-1.4
				c0-1,0-2.3-0.1-4c0-3.5-0.1-8.1-0.1-13.4l0-0.3l0.3,0c1.3,0,2.7,0,4.1,0c6.3,0,12.1,0,16.2,0.1c2,0,3.7,0.1,4.9,0.1
				c0.5,0,1,0,1.3,0C118.5,97.2,118.7,97.2,118.7,97.2z"/>
		</g>
	</g>
	<g>
		<g>
			<g>
				<g>
					<g>
						<g>
							<rect x="329.8" y="428.3" class="st2" width="10.8" height="50.9"/>
						</g>
					</g>
				</g>
				<g>
					<g>
						<g>
							<rect x="421.5" y="428.3" class="st2" width="10.8" height="50.9"/>
						</g>
					</g>
				</g>
				<g>
					<g>
						<g>
							<rect x="312" y="364.3" class="st2" width="136" height="12.6"/>
						</g>
					</g>
				</g>
				<g>
					<g>
						<g>
							<polygon class="st2" points="442.6,428.9 320.3,429.2 320.3,376.9 442.6,376.9 							"/>
						</g>
					</g>
				</g>
				<g>
					<g>
						<g>
							<g>
								<path class="st1" d="M448,376.9c0,0.1-30.5,0.2-68,0.2c-37.6,0-68-0.1-68-0.2c0-0.1,30.4-0.2,68-0.2
									C417.6,376.6,448,376.8,448,376.9z"/>
							</g>
						</g>
					</g>
				</g>
				<g>
					<g>
						<g>
							<g>
								<path class="st1" d="M442.2,429.2c0,0.1-27.2,0.2-60.7,0.2c-33.5,0-60.7-0.1-60.7-0.2c0-0.1,27.2-0.2,60.7-0.2
									C415,428.9,442.2,429.1,442.2,429.2z"/>
							</g>
						</g>
					</g>
				</g>
				<g>
					<g>
						<g>
							<g>
								<path class="st1" d="M432.5,418.6c0,0,0-0.2,0-0.6c0-0.4,0-1,0-1.7c0-1.5,0-3.8,0-6.7c0-5.8-0.1-14.3-0.1-24.9l0.2,0.2
									c-24.5,0-61.2,0.1-102.2,0.1h0l0.2-0.2c0,11.8,0,23.2,0,33.9l-0.2-0.2c29.4,0,54.9,0.1,73.1,0.1c9.1,0,16.4,0.1,21.4,0.1
									c2.5,0,4.4,0,5.7,0c0.6,0,1.1,0,1.5,0C432.3,418.6,432.5,418.6,432.5,418.6s-0.2,0-0.5,0c-0.3,0-0.8,0-1.5,0
									c-1.3,0-3.2,0-5.7,0c-5,0-12.2,0-21.3,0.1c-18.2,0-43.8,0.1-73.2,0.1l-0.2,0l0-0.2c0-10.7,0-22.1,0-33.9l0-0.2h0.2h0
									c40.9,0,77.6,0.1,102.2,0.1l0.2,0l0,0.2c0,10.7-0.1,19.2-0.1,25c0,2.9,0,5.1,0,6.7c0,0.7,0,1.3,0,1.7
									C432.5,418.4,432.5,418.6,432.5,418.6z"/>
							</g>
						</g>
					</g>
				</g>
				<g>
					<g>
						<g>
							<g>
								<path class="st1" d="M334.4,414.1c0.1,0.1-0.7,1.1-1.8,2.3c-1.1,1.2-2,2-2.1,1.9c-0.1-0.1,0.7-1.1,1.8-2.3
									C333.3,414.9,334.3,414,334.4,414.1z"/>
							</g>
						</g>
					</g>
				</g>
				<g>
					<g>
						<g>
							<g>
								<path class="st1" d="M334.4,389.1c-0.1,0.1-1.1-0.8-2.2-2.1c-1.1-1.2-1.9-2.3-1.8-2.4c0.1-0.1,1.1,0.8,2.2,2.1
									C333.7,387.9,334.5,389,334.4,389.1z"/>
							</g>
						</g>
					</g>
				</g>
				<g>
					<g>
						<g>
							<g>
								<path class="st1" d="M432.7,384.8c0.1,0.1-0.9,1.2-2.2,2.4c-1.4,1.2-2.5,2.1-2.5,2c-0.1-0.1,0.9-1.2,2.2-2.4
									C431.5,385.6,432.6,384.7,432.7,384.8z"/>
							</g>
						</g>
					</g>
				</g>
				<g>
					<g>
						<g>
							<g>
								<path class="st1" d="M432.5,418.6c-0.1,0.1-1.2-0.8-2.5-2c-1.3-1.2-2.2-2.3-2.1-2.4c0.1-0.1,1.2,0.8,2.5,2
									C431.7,417.4,432.6,418.5,432.5,418.6z"/>
							</g>
						</g>
					</g>
				</g>
				<g>
					<g>
						<g>
							<g>
								<path class="st1" d="M427.9,414.1c0,0,0-0.2,0-0.4c0-0.3,0-0.7,0-1.3c0-1.1,0-2.8,0-4.9c0-4.3,0-10.5-0.1-18.4l0.1,0.1
									c-21.3,0-55.3,0.1-93.5,0.1h0l0.2-0.2c0,8.6,0,17,0,25l-0.2-0.2c26.7,0,50,0.1,66.7,0.1c8.3,0,15,0.1,19.6,0.1
									c2.3,0,4.1,0,5.3,0c0.6,0,1.1,0,1.4,0C427.8,414.1,427.9,414.1,427.9,414.1s-0.1,0-0.4,0c-0.3,0-0.8,0-1.3,0
									c-1.2,0-3,0-5.2,0c-4.6,0-11.3,0-19.6,0.1c-16.7,0-40.1,0.1-66.9,0.1l-0.2,0v-0.2c0-8,0-16.4,0-25v-0.2h0.2h0
									c38.2,0,72.2,0.1,93.5,0.1l0.2,0l0,0.1c0,7.9-0.1,14.2-0.1,18.5c0,2.1,0,3.8,0,4.9c0,0.5,0,0.9,0,1.2
									C427.9,414,427.9,414.1,427.9,414.1z"/>
							</g>
						</g>
					</g>
				</g>
				<g>
					<g>
						<g>
							<g>
								<path class="st1" d="M390.4,399.3c-0.8-0.5-1.6-0.9-2.5-1.1c-0.8-0.3-1.6-0.4-2.5-0.4h-6.9c-2,0-4,0.7-5.5,2.1
									c-0.4,0.3-0.7,0.7-0.8,1c-0.6,1.1-0.6,2.5,0.3,3.4c0.9,0.8,2.7,0.4,2.8-0.8c0,1.6,1.6,2.9,3.2,2.8c1.6-0.1,2.9-1.4,3.4-2.9
									c0,1.4,1.1,2.6,2.5,2.7c1.3,0.1,2.7-1,2.9-2.3c0.8,1.1,2.1,2.1,3.6,1.7c0.8-0.3,1.4-1,1.6-1.8
									C392.9,401.8,391.8,400.2,390.4,399.3z"/>
							</g>
						</g>
					</g>
					<g>
						<g>
							<g>
								<g>
									<path class="st2" d="M379.8,397.7c0.1,0.1-1.6,0.9-2.8,2.6c-1.3,1.7-1.4,3.5-1.6,3.5c-0.1,0-0.1-0.5,0-1.2
										c0.1-0.7,0.5-1.7,1.2-2.6c0.7-0.9,1.5-1.6,2.1-1.9C379.3,397.8,379.8,397.7,379.8,397.7z"/>
								</g>
							</g>
						</g>
					</g>
					<g>
						<g>
							<g>
								<g>
									<path class="st2" d="M382.4,398c0.1,0,0.1,1.2,0,2.7c-0.2,1.5-0.4,2.7-0.5,2.7c-0.1,0-0.1-1.2,0-2.7
										C382,399.2,382.3,398,382.4,398z"/>
								</g>
							</g>
						</g>
					</g>
					<g>
						<g>
							<g>
								<g>
									<path class="st2" d="M385.7,397.9c0,0,0.4,0.1,0.8,0.5c0.4,0.4,0.8,1.2,1,2.1c0.2,0.9,0.1,1.7,0,2.3
										c-0.1,0.6-0.2,0.9-0.2,0.9c-0.1,0-0.1-0.4-0.1-0.9c0-0.6,0-1.4-0.1-2.2c-0.1-0.8-0.5-1.5-0.8-2
										C386,398.2,385.7,398,385.7,397.9z"/>
								</g>
							</g>
						</g>
					</g>
				</g>
			</g>
			<g>
				<rect x="339.4" y="445.4" class="st2" width="83.8" height="9.8"/>
			</g>
		</g>
		<g>
			<g>
				<g>
					<g>
						<g>
							<g>
								<g>
									<path class="st1" d="M402.2,351.6v12.6h-54.4c-3.5,0-6.3-2.8-6.3-6.3v0c0-3.5,2.8-6.3,6.3-6.3"/>
								</g>
							</g>
						</g>
					</g>
				</g>
				<g>
					<g>
						<g>
							<g>
								<g>
									<path class="st2" d="M402.2,361.6h-18.3c-1.8,0-3.3-1.5-3.3-3.3v-0.8c0-1.8,1.5-3.3,3.3-3.3h18.3V361.6z"/>
								</g>
							</g>
						</g>
					</g>
				</g>
			</g>
			<g>
				<g>
					<g>
						<g>
							<g>
								<g>
									<path class="st2" d="M402.2,338.9v12.6h-54.4c-3.5,0-6.3-2.8-6.3-6.3v0c0-3.5,2.8-6.3,6.3-6.3H402.2z"/>
								</g>
							</g>
						</g>
					</g>
				</g>
				<g>
					<g>
						<g>
							<g>
								<g>
									<path class="st3" d="M402.2,348.9h-18.3c-1.8,0-3.3-1.5-3.3-3.3v-0.8c0-1.8,1.5-3.3,3.3-3.3h18.3V348.9z"/>
								</g>
							</g>
						</g>
					</g>
				</g>
			</g>
			<g>
				<g>
					<g>
						<polygon class="st1" points="362.9,318.6 354.3,338.9 359.8,338.9 363.7,328.1 						"/>
					</g>
				</g>
				<g>
					<g>
						<g>
							<g>
								<polygon class="st3" points="389.4,300.3 392.8,338.9 364.5,338.9 361.4,300.3 								"/>
							</g>
						</g>
						<g>
							<g>
								<polygon class="st0" points="386.7,303.4 389.6,335.7 368.4,336 365.5,303.2 								"/>
							</g>
						</g>
					</g>
					<g>
						<g>
							<polygon class="st1" points="382.2,307.8 383.8,330.1 372.5,330.1 370.5,307.8 							"/>
						</g>
					</g>
				</g>
			</g>
		</g>
	</g>
	<g>
		<g>
			<g>
				<g>
					<g>
						<g>
							<path class="st4" d="M340.7,96.5c-0.1-0.9-0.2-1.9-0.3-2.8c-0.1-1-0.3-1.9-0.4-2.9c0.2,1,0.3,1.9,0.4,2.9
								C340.5,94.7,340.6,95.6,340.7,96.5z"/>
						</g>
					</g>
				</g>
				<g>
					<g>
						<g>
							<path class="st3" d="M333.2,108c-0.8-1.8-1-3.8-1.5-5.7c-0.3-1-0.8-2.1-1.7-2.6c-0.6-0.3-1.4-0.3-2.1-0.5
								c-2.4-0.7-3.1-4.1-5.4-5.2c-0.7-0.3-1.5-0.4-2.3-0.5c-3.1-0.4-6.2-1.4-8.2-3.8c-0.6-0.8-1.1-1.7-1.9-2.3
								c-0.8-0.6-2-0.9-2.8-0.3c0.6,1.3,1.3,2.6,1.9,3.9c0.6,1.2,1.2,2.4,2.1,3.2c1,0.9,2.4,1.3,3.6,0.8c0.4-0.2,0.8-0.5,1.2-0.4
								c0.3,0,0.6,0.3,0.8,0.5c1.7,1.9,1.1,4.9-0.5,6.8c-1.6,1.9-4,2.9-6.3,3.8c-0.8,0.3-1.7,0.7-2.6,0.5c-1.6-0.3-2.5-2-2.9-3.6
								c-1-3.5-1.6-7.2-3.7-10.2c-0.7-0.9-1.5-1.8-2-2.8c-0.4-1.2-0.3-2.5-1-3.5c-0.7-1.1-2.3-1.7-2.4-3c-0.1-0.9,0.7-1.7,1.5-2.1
								c0.8-0.4,1.8-0.5,2.6-0.9c0.3-0.1,0.7-0.4,0.7-0.8c0-0.5-0.8-0.8-0.9-1.3c-0.2-0.6,0.4-1.1,0.6-1.7c0.5-1.3-0.8-2.6-2.1-3.1
								c-1.3-0.5-2.8-0.9-3.4-2.1c-0.3-0.6-0.3-1.2-0.4-1.9c-0.3-1.6-1.5-3.1-3-3.3c-1.6-0.3-3.4,1.2-3.1,2.7
								c0.2,0.9,0.8,1.5,1.2,2.3c0.4,0.8,0.3,2-0.6,2.3c-1.4,0.4-2.7-2.1-3.8-1.2c0.5,1.6,0.9,3.2,1.4,4.8c-1.8,0.9-3.9-0.7-4.7-2.6
								c-0.8-1.9-0.8-4-1.7-5.8c-0.9-1.8-3.4-3.1-4.9-1.9c-0.1,2.3,3,3.2,4.3,5.1c1,1.3,0.8,3.5-0.6,4.4c-1.4,0.9-3.7-0.6-3.1-2.2
								c0.2-0.5,0.6-1,0.7-1.6c0.1-0.7-0.6-1.3-1.1-1.8c-0.9-0.7-1.7-1.5-2.6-2.2c-0.6-0.5-1.2-1-1.9-1.2c-1.8-0.5-3.6,0.9-4.5,2.5
								c-0.9,1.6-1.5,3.5-2.8,4.8c-1.9,1.9-5.4,2.1-7.2,0c-1.8-2-0.9-5.8,1.7-6.6c1-0.3,2.2-0.2,2.7-1.1c0.9-1.5-1.7-3.5-0.8-5.1
								c0.7-1.2,2.5-0.6,3.8-1c1.3-0.4,2-1.7,2.8-2.9c0.8-1.1,2-2.3,3.3-2c-0.1-0.8-0.2-1.6,0.1-2.4c0.3-0.7,1.3-1.2,2-0.7
								c-0.7,1.1,0.1,2.6,1.3,3.1c1.2,0.5,2.5,0.4,3.8,0.3c1.3-0.2,2.9-0.6,3-1.9c0-0.4-0.1-0.9,0-1.2c0.6-1.5,3.4,0.6,4.4-0.6
								c0.6-0.6-0.1-1.8-0.9-2c-0.9-0.2-1.7,0.1-2.6,0.1c-0.9,0-2-0.4-2-1.3c0-0.9,0.9-1.5,1-2.3c0.2-1.5-2.3-1.8-3.2-0.6
								c-0.9,1.2-0.6,2.8-0.3,4.2c0.3,1.4,0.4,3.1-0.7,4.1c-0.5,0.7-1.6,0.3-2-0.4c-0.4-0.7-0.3-1.6-0.4-2.4c-0.1-0.8-0.4-1.8-1.2-2
								c-0.6-0.2-1.2,0.1-1.7,0.2c-2.3,0.3-3.8-2.6-3.1-4.8c0.7-2.2,2.7-3.5,4.7-4.6c1.5-0.8,3.2-1.6,4.7-0.7c0.7,0.4,1.1,1,1.8,1.4
								c1.1,0.7,2.6,0.4,3.9,0.5c2.1,0.1,4.1,0.8,5.6,2.2c0.6,0.5,1.1,1.4,0.7,2c-0.5,0.7-1.9,0.8-1.7,1.6c1.5,0.5,3.4-0.7,3.5-2.3
								c0.8,0.3,1.3,1.1,1.4,1.9c1.6-1.7,4.8-1.4,6.2,0.5c0.4,0.5,0.6,1.1,1.1,1.5c0.5,0.3,1.4,0.2,1.5-0.4c0-0.2,0-0.4-0.1-0.6
								c-0.3-0.9-0.6-1.7-0.9-2.6c1.2-0.6,2.6,0.4,3.4,1.5c3,4.1,5.2,1.6,9.5,2.3c2.9,0.4,4.2,2.3,5.8,4.5
								c5,6.9,11.6,12.5,16.1,19.7c0.5,0.8,0.9,1.5,1.3,2.3c-0.1-0.2-0.1-0.4-0.2-0.6c-1.8-4.7-4-9.2-6.6-13.4
								c-0.6-0.9-1.1-1.8-1.7-2.7c-0.4-0.5-0.7-1.1-1.1-1.6c-0.5-0.7-1-1.4-1.5-2c-0.4-0.5-0.8-1.1-1.2-1.6
								c-0.3-0.4-0.6-0.7-0.9-1.1c-0.3-0.4-0.6-0.8-1-1.2l-1.1-1.3c-0.1-0.1-0.2-0.3-0.3-0.4c-0.4-0.4-0.8-0.9-1.2-1.3
								c0-0.1-0.1-0.1-0.1-0.1c-0.1-0.1-0.2-0.2-0.3-0.3c-0.3-0.4-0.7-0.7-1-1.1c-0.6-0.6-1.1-1.1-1.7-1.7c-0.5-0.5-1-0.9-1.5-1.4
								c-0.4-0.4-0.9-0.8-1.3-1.2c-0.4-0.4-0.9-0.8-1.3-1.1c-0.5-0.5-1.1-0.9-1.7-1.4h0c-1.6-1.3-3.2-2.4-4.8-3.6
								c-0.4-0.3-0.8-0.6-1.2-0.8c-0.4-0.3-0.8-0.5-1.3-0.8c-0.4-0.3-0.8-0.5-1.3-0.8c-0.4-0.3-0.9-0.5-1.3-0.8
								c-0.3-0.2-0.7-0.4-1-0.6c-0.2-0.1-0.3-0.2-0.5-0.3c-0.7-0.4-1.5-0.8-2.2-1.2c-0.4-0.2-0.8-0.4-1.1-0.6
								c-0.5-0.2-1-0.5-1.5-0.7c-0.1,0-0.1-0.1-0.2-0.1c-0.4-0.2-0.9-0.4-1.3-0.6c-0.6-0.3-1.3-0.5-1.9-0.8
								c-0.7-0.3-1.5-0.6-2.2-0.9c-0.8-0.3-1.6-0.6-2.5-0.9c-0.8-0.3-1.7-0.6-2.5-0.8c-0.8-0.3-1.7-0.5-2.5-0.7
								c-1.7-0.5-3.4-0.9-5.1-1.2c0,0-0.1,0-0.1,0c-0.7-0.1-1.3-0.3-2-0.4c-0.1,0-0.1,0-0.1,0c-0.3-0.1-0.6-0.1-0.9-0.1
								c-1.2-0.2-2.5-0.4-3.7-0.5c-0.1,0-0.3,0-0.5-0.1c-0.4-0.1-0.7-0.1-1.1-0.1c-0.8-0.1-1.7-0.1-2.5-0.2
								c-0.9-0.1-1.7-0.1-2.6-0.1c-0.9,0-1.8-0.1-2.8-0.1c-2.4,0-4.8,0.1-7.2,0.3c-0.6,0-1.1,0.1-1.7,0.2c-0.6,0.1-1.2,0.1-1.7,0.2
								c-0.6,0.1-1.2,0.2-1.7,0.2c-0.6,0.1-1.2,0.2-1.7,0.3c-0.5,0.1-1,0.2-1.5,0.3c-1.2,0.2-2.4,0.5-3.6,0.8
								c-0.6,0.1-1.1,0.3-1.7,0.4c-0.6,0.1-1.1,0.3-1.7,0.5c-0.9,0.3-1.8,0.5-2.7,0.8h0c-0.7,0.2-1.5,0.5-2.2,0.7c0,0,0,0-0.1,0
								c-0.7,0.3-1.5,0.5-2.2,0.8c0,0-0.1,0-0.1,0c-0.7,0.3-1.3,0.5-2,0.8c-0.8,0.3-1.6,0.7-2.4,1.1c-0.7,0.3-1.3,0.6-2,0.9
								c-0.7,0.3-1.4,0.7-2.1,1.1c0,0-0.1,0-0.1,0c-0.7,0.3-1.3,0.7-2,1.1c-0.7,0.4-1.3,0.8-2,1.2h0c-0.6,0.4-1.2,0.8-1.8,1.1
								c-0.2,0.1-0.5,0.3-0.7,0.5c-0.6,0.4-1.3,0.8-1.9,1.3c-0.8,0.5-1.5,1.1-2.3,1.6c-0.7,0.5-1.3,1-1.9,1.5
								c-3.7,2.9-7.1,6.2-10.2,9.6c-1.1,1.2-2.1,2.5-3.1,3.7c-0.9,1.1-1.7,2.2-2.5,3.3c-0.7,1-1.4,2-2.1,3c0.7-1,1.3-2,2.1-3
								c0.2,0,0.4-0.1,0.6-0.1c1.2-0.1,2.4-0.1,3.4-0.6c1-0.5,1.7-1.3,2.5-2c2.3-1.6,5.9-1.9,6.6-4.6c0.2-0.9,0-1.9,0.3-2.8
								c0.6-1.6,2.8-1.9,4.5-1.8c0.7,0,1.6,0.1,1.9,0.8c0.2,0.5,0.1,1-0.1,1.5c-1.1,3-3.2,5.6-5.9,7.3c-2.3,1.4-5.2,2.4-5.8,5
								c0.3,0.9,1.9,0.8,2,1.7c0.1,0.7-0.8,1.1-1.2,1.7c-0.5,0.9,0.6,2.1,1.7,2c1.1-0.1,2-0.8,2.8-1.6c2.4-2.2,4.8-4.5,5.7-7.7
								c0.4-1.3,0.5-2.8,1.5-3.6c1.2-1,3.4-0.3,3.8,1.2c1-0.6,2.6-1,3.1,0.1c0.2,0.4,0.1,0.8,0.2,1.2c0.3,1.7,2.6,2.4,2.8,4.1
								c0.3,1.9-2.2,2.9-4.1,3.2c-1.7,0.3-3.5,0.5-5.2,0.8c-0.8,0.1-1.6,0.2-2.2,0.7c-0.6,0.5-1,1.3-0.6,2c0.2,0.4,0.6,0.6,0.9,0.9
								c1.5,1.5,0.3,4.4-1.8,4.5c-0.7,0-1.4-0.2-2.1-0.3c-2.1-0.1-3.7,1.7-4.7,3.6c-1,1.8-1.7,3.9-3.4,5.2c-2.7,2-7.3,1.5-8.6,4.6
								c-0.5,1.2-0.2,2.6,0,4c0.2,1.3,0.3,2.8-0.5,3.9c-0.8,1.1-2.8,1.3-3.3,0.1c-0.2-0.5-0.2-1.2-0.1-1.7c0.3-1.9,0.6-3.8,0.9-5.7
								c0.2-1.4,0.4-3-0.4-4.2c-1.2-1.6-3.8-1.5-5.3-0.2c-1.5,1.3-2.1,3.4-2.6,5.3c-0.3,1.5-0.7,3.5-1.5,5.2c0,0,0,0,0,0
								c-0.3,1.6-0.5,3.2-0.7,4.9c-0.2,1.7-0.3,3.4-0.3,5.1c0.2-0.2,0.4-0.4,0.7-0.6c0.8-0.8,2.5-4.4,3.9-2.7c0.4,0.4,0.4,1.2,0,1.6
								c-0.5,0.6-1.4,0.7-1.7,1.3c-0.4,0.8,0.2,1.7,0.9,2.2c0.7,0.5,1.6,0.8,2,1.5c0.9,1.4,0,3.4,1,4.8c0.8,1.2,2.5,1.3,3.9,1.4
								c0.2,0,0.3,0.1,0.5,0.1c0.4-2.8,1.7-5.2,5.6-6c5.4-1.2,12.4,3.2,15.4,7.3c3.4,4.5,5,10.9,10.1,13.2c3.7,1.6,8.9,1,10.7,4.6
								c1.6,3.2-1.2,6.9-1.6,10.5c-0.3,2.4,0.5,4.7,0.7,7.1c0.2,2.4-0.5,5.2-2.7,6.2c-1.2,0.5-2.7,0.5-3.7,1.4c-1.7,1.6-0.3,5-2,6.6
								c-0.6,0.6-1.5,0.8-2.2,1.2c-3.9,2-3.8,7.7-2,11.6c0.1,0.1,0.1,0.3,0.2,0.4c5.7,3.4,11.9,6.2,18.4,8.1
								c7.5,2.3,15.4,3.5,23.6,3.5c13.9,0,26.9-3.5,38.4-9.6h0c2.5-1.3,4.9-2.8,7.2-4.4c3.6-2.4,7-5.1,10.2-8.1
								c2.2-2,4.3-4.2,6.2-6.5c1.4-1.6,2.7-3.2,3.9-4.9c0.6-0.9,1.3-1.7,1.8-2.6c1.8-2.6,3.4-5.3,4.9-8.2c2.1-4.1,3.9-8.3,5.3-12.8
								c1.4-4.5,2.5-9.1,3.1-13.9c0.2-1.8,0.4-3.7,0.6-5.6c-0.9,0.9-2.1,1.5-3.3,1.5C335.6,111.5,334,109.8,333.2,108z"/>
						</g>
					</g>
				</g>
				<g>
					<g>
						<g>
							<path class="st3" d="M188.1,126.2c-0.3-2.3,0.5-4.7,0.6-7.1c0-1.6-0.1-3.4-0.1-5c-1.4-0.1-2.8-0.3-4.2-0.6
								c-0.3-0.1-0.6-0.2-0.8-0.4c-0.2-0.2-0.2-0.6-0.2-0.9c-0.1-1.8-1.9-3.1-3.5-4c-0.8-0.5-1.6-0.9-2.5-1.2c0,0.2,0,0.4,0,0.6
								c0.3,9.1,2.1,17.8,5.2,26c1.4,3.7,3.1,7.3,5,10.7c0.8,1.5,1.7,3,2.6,4.4c1.1,1.8,2.3,3.5,3.6,5.2c1.2,1.6,2.5,3.2,3.8,4.7
								c1.8,2.1,3.8,4.1,5.8,6c1.8,1.7,3.7,3.3,5.6,4.8c-4.5-12-8.7-24.2-16.3-34.4C190.8,132.2,188.5,129.5,188.1,126.2z"/>
						</g>
					</g>
				</g>
				<g>
					<g>
						<g>
							<path class="st4" d="M177.5,103.2c0,0.5,0,1,0,1.5c0,0.4,0,0.8,0,1.2c0-0.4,0-0.8,0-1.2C177.4,104.2,177.5,103.7,177.5,103.2
								z"/>
						</g>
					</g>
				</g>
				<g class="st5">
					<g>
						<g>
							<path class="st4" d="M213.7,172.6c0.7,0.5,1.4,0.9,2.1,1.4c0.5,0.3,1,0.6,1.5,0.9c-0.5-0.3-1-0.6-1.5-0.9
								C215.1,173.5,214.4,173.1,213.7,172.6z"/>
						</g>
					</g>
				</g>
				<g>
					<g>
						<g>
							<path class="st1" d="M283,167.5c-0.5,0-1-0.1-1.5-0.2c-1.7-0.4-3-1.3-3.6-2.7c-0.5-1.1-0.6-2.4-0.6-3.6
								c0-0.8-0.1-1.7-0.3-2.4c-0.3-1.4-1.1-2.6-1.9-3.9c-0.6-1-1.2-1.9-1.7-3c-0.8-2-0.8-4.1-0.9-6.2l0-0.5
								c-0.4-14.4-4.4-26.1-11.6-33.8c-1-1.1-2.1-2.1-3.5-2.5c-1.6-0.4-3.5,0.2-4.5,1.6c-0.3,0.3-0.5,0.7-0.7,1.1
								c-0.3,0.6-0.7,1.2-1.2,1.7c-0.7,0.7-1.8,1-2.9,0.8c-1.5-0.2-2.9-1.2-3.6-2.5c-1.3-2.2-1-5-0.9-7.2l0.7-8.9
								c0.1-1.4,0.3-3.3,1.4-4.6c0.9-1,2.1-1.5,3.3-1.9c0.9-0.3,1.8-0.7,2.6-1.2c1.4-1.1,2.1-2.8,2.7-4.6c0.4-1,0.8-2,1.3-3
								c1-1.7,3.3-2.8,5.1-2.5c0.9,0.1,1.5,0.6,1.9,1.3c0.9-1.7,2-2.7,3.3-3.1c3-0.8,6.6,1.5,10.1,3.8c3.2,2.1,6.2,4,8.5,3.6
								c0.6-0.1,1.2-0.3,1.8-0.4c1.2-0.3,2.5-0.7,3.8-0.5c3.4,0.5,5.2,4.2,6.3,7.4l5.6,15.6c0.7,1.9,1.6,4.1,3.4,4.8
								c0.7,0.3,1.5,0.3,2.3,0.3c0.8,0,1.6,0.1,2.4,0.3c1.4,0.5,2.3,1.6,2.6,3.2c0.5,2.6-0.8,6-3,7.9l0,0c-1,0.9-2.2,1.7-3.3,2.4
								c-2.5,1.7-4.9,3.3-5.9,6c-0.6,1.4-0.6,3-0.7,4.6c-0.1,1.7-0.1,3.4-0.8,4.9c-0.6,1.3-1.5,2.5-2.4,3.5
								c-0.6,0.7-1.1,1.3-1.6,2.1c-1.8,2.7-2.3,6-2.8,9.3c-0.1,0.4-0.1,0.8-0.2,1.2c-0.6,3.6-1.5,7.6-4.5,10.1
								C286.5,166.9,284.8,167.5,283,167.5z"/>
						</g>
					</g>
				</g>
				<g class="st5">
					<g>
						<g>
							<path class="st4" d="M177.5,101.2L177.5,101.2L177.5,101.2L177.5,101.2L177.5,101.2c0,0.2,0,0.3,0,0.5c0,0.5,0,1,0,1.5
								c0-0.5,0-1,0-1.5C177.5,101.5,177.5,101.4,177.5,101.2z"/>
						</g>
					</g>
				</g>
				<g class="st5">
					<g>
						<g>
							<path class="st4" d="M177.5,105.8c0,0.4,0,0.8,0,1.2l0,0l0,0C177.5,106.6,177.5,106.2,177.5,105.8z"/>
						</g>
					</g>
				</g>
				<g>
					<g>
						<g>
							<path class="st1" d="M188.7,110.9c-0.2,0-0.3-0.1-0.5-0.1c-1.4-0.2-3.1-0.2-3.9-1.4c-0.9-1.4,0-3.4-1-4.8
								c-0.5-0.7-1.3-1-2-1.5c-0.7-0.5-1.3-1.4-0.9-2.2c0.3-0.6,1.3-0.8,1.7-1.3c0.4-0.5,0.3-1.2,0-1.6c-1.5-1.7-3.1,1.8-3.9,2.7
								c-0.2,0.2-0.5,0.5-0.7,0.6v0c0,0.2,0,0.3,0,0.5c0,0.5,0,1,0,1.5c0,0.5,0,1,0,1.5c0,0.4,0,0.8,0,1.2c0,0.4,0,0.8,0,1.2
								c0.9,0.3,1.7,0.8,2.5,1.2c1.6,0.9,3.4,2.1,3.5,4c0,0.3,0,0.6,0.2,0.9c0.2,0.2,0.5,0.3,0.8,0.4c1.4,0.3,2.8,0.5,4.2,0.6"/>
						</g>
					</g>
				</g>
				<g>
					<g>
						<g>
							<path class="st1" d="M188.6,114.1c0,1.6,0.1,3.4,0.1,5c0,2.4-0.8,4.7-0.6,7.1c0.4,3.3,2.7,6,4.7,8.7
								c7.6,10.2,11.8,22.4,16.3,34.4h0c0.8,0.7,1.7,1.3,2.5,1.9c0.7,0.5,1.4,1,2,1.4c0.7,0.5,1.4,0.9,2.1,1.4
								c0.5,0.3,1,0.6,1.5,0.9c-0.1-0.1-0.1-0.3-0.2-0.4c-1.8-3.9-1.9-9.6,2-11.6c0.7-0.4,1.6-0.6,2.2-1.2c1.7-1.6,0.3-5,2-6.6
								c1-0.9,2.5-0.8,3.7-1.4c2.2-1,2.9-3.8,2.7-6.2c-0.2-2.4-1-4.7-0.7-7.1c0.4-3.6,3.2-7.2,1.6-10.5c-1.8-3.6-7-3-10.7-4.6
								c-5.2-2.3-6.7-8.7-10.1-13.2c-3-4-10.1-8.5-15.4-7.3c-3.9,0.9-5.2,3.2-5.6,6"/>
						</g>
					</g>
				</g>
				<g>
					<g>
						<g>
							<path class="st1" d="M182.6,80.8c1.5-1.3,4.2-1.5,5.3,0.2c0.8,1.2,0.6,2.8,0.4,4.2c-0.3,1.9-0.6,3.8-0.9,5.7
								c-0.1,0.6-0.2,1.2,0.1,1.7c0.6,1.2,2.6,1,3.3-0.1c0.8-1.1,0.7-2.6,0.5-3.9c-0.2-1.3-0.5-2.7,0-4c1.3-3.1,5.9-2.6,8.6-4.6
								c1.7-1.2,2.4-3.3,3.4-5.2c1-1.8,2.6-3.7,4.7-3.6c0.7,0,1.4,0.3,2.1,0.3c2-0.1,3.2-3.1,1.8-4.5c-0.3-0.3-0.7-0.6-0.9-0.9
								c-0.4-0.7,0-1.6,0.6-2c0.6-0.5,1.4-0.6,2.2-0.7c1.7-0.3,3.5-0.6,5.2-0.8c1.9-0.3,4.4-1.3,4.1-3.2c-0.2-1.7-2.5-2.4-2.8-4.1
								c-0.1-0.4,0-0.8-0.2-1.2c-0.5-1.1-2.1-0.6-3.1-0.1c-0.4-1.5-2.6-2.2-3.8-1.2c-1,0.9-1.2,2.4-1.5,3.6
								c-0.9,3.1-3.3,5.5-5.7,7.7c-0.8,0.7-1.7,1.5-2.8,1.6c-1.1,0.1-2.2-1.1-1.7-2c0.3-0.6,1.3-1,1.2-1.7c-0.1-0.9-1.7-0.8-2-1.7
								c0.6-2.6,3.6-3.6,5.8-5c2.7-1.7,4.9-4.3,5.9-7.3c0.2-0.5,0.3-1,0.1-1.5c-0.3-0.6-1.2-0.8-1.9-0.8c-1.7,0-3.9,0.2-4.5,1.8
								c-0.3,0.9-0.1,1.9-0.3,2.8c-0.6,2.7-4.3,3-6.6,4.6c-0.9,0.6-1.6,1.5-2.5,2c-1,0.5-2.3,0.5-3.4,0.6c-0.2,0-0.4,0-0.6,0.1
								c-0.7,1-1.4,2-2.1,3c-0.7,1-1.3,2.1-1.9,3.1c-2.9,5-5.3,10.3-7.1,15.8c-0.6,1.9-1.2,3.9-1.7,5.9c-0.5,2-0.9,4-1.2,6.1
								c0.8-1.7,1.2-3.7,1.5-5.2C180.4,84.2,181.1,82.1,182.6,80.8z"/>
						</g>
					</g>
				</g>
				<g>
					<g>
						<g>
							<path class="st1" d="M251.2,42.9c0.8-1,0.5-2.5,1-3.6c0.8-1.9,3.4-2.6,4.3-4.6c0.3-0.7,0.4-1.6,1-2.2c0.5-0.5,1.2-0.5,1.8-1
								c1.2-0.9,0.7-3-0.6-3.8c-3.2-2-9.1,0.3-11.9,2.3c-3.6,2.6-7.1,5.7-11.8,5.4c-1.3-0.1-2.7-0.4-3.9,0c-1.2,0.5-2,2.3-0.9,3.1
								c0.6,0.4,1.4,0.3,2.1,0.6c1.2,0.6,1.3,2.3,0.7,3.5c-0.6,1.2-1.7,2.1-2.4,3.3c-0.7,1.1-1,2.4-0.9,3.7c0.1,0.9,0.4,1.8,1.1,2.4
								c1.5,1.2,3.7,0.2,5-1.2c1.3-1.4,2.1-3.2,3.7-4.2c0.8-0.5,1.7-0.7,2.7-0.9c2.1-0.5,4.1-1,6.2-1.5
								C249.5,44,250.6,43.7,251.2,42.9z"/>
						</g>
					</g>
				</g>
				<g class="st5">
					<g>
						<g>
							<path class="st4" d="M341,103.5c0-1.2,0-2.3-0.1-3.5C341,101.2,341,102.3,341,103.5c0,0.4,0,0.8,0,1.1c0,1.8-0.1,3.6-0.2,5.4
								c0.1-1.8,0.2-3.6,0.2-5.4C341.1,104.3,341.1,103.9,341,103.5z"/>
						</g>
					</g>
				</g>
				<g class="st5">
					<g>
						<g>
							<path class="st4" d="M335.9,76.1c0.4,1,0.8,2.1,1.1,3.1C336.7,78.2,336.3,77.1,335.9,76.1C335.9,76.1,335.9,76.1,335.9,76.1
								C335.9,76.1,335.9,76.1,335.9,76.1C335.9,76.1,335.9,76.1,335.9,76.1C335.9,76.1,335.9,76.1,335.9,76.1z"/>
						</g>
					</g>
				</g>
				<g>
					<g>
						<g>
							<path class="st1" d="M341,103.5c0-1.2,0-2.3-0.1-3.5c-0.1-1.2-0.2-2.3-0.3-3.5c-0.1-0.9-0.2-1.9-0.3-2.8
								c-0.1-1-0.3-1.9-0.4-2.9c-0.5-2.9-1.1-5.7-1.9-8.5c-0.3-1.1-0.6-2.1-1-3.2c-0.3-1.1-0.7-2.1-1.1-3.1c0,0,0,0,0,0c0,0,0,0,0,0
								c-0.4-0.8-0.9-1.5-1.3-2.3c-4.5-7.2-11.1-12.8-16.1-19.7c-1.6-2.2-2.9-4.1-5.8-4.5c-4.3-0.7-6.4,1.8-9.5-2.3
								c-0.8-1.1-2.2-2.1-3.4-1.5c0.3,0.9,0.6,1.7,0.9,2.6c0.1,0.2,0.1,0.4,0.1,0.6c-0.1,0.6-1,0.8-1.5,0.4c-0.5-0.3-0.8-1-1.1-1.5
								c-1.3-1.9-4.5-2.2-6.2-0.5c-0.1-0.8-0.6-1.6-1.4-1.9c-0.2,1.6-2,2.8-3.5,2.3c-0.2-0.8,1.2-0.9,1.7-1.6c0.5-0.6-0.1-1.5-0.7-2
								c-1.5-1.3-3.6-2.1-5.6-2.2c-1.3,0-2.7,0.2-3.9-0.5c-0.7-0.4-1.1-1-1.8-1.4c-1.4-0.8-3.2-0.1-4.7,0.7c-2,1.1-4,2.5-4.7,4.6
								c-0.7,2.1,0.9,5.1,3.1,4.8c0.6-0.1,1.2-0.3,1.7-0.2c0.8,0.2,1.2,1.2,1.2,2c0.1,0.8,0,1.7,0.4,2.4c0.4,0.7,1.6,1.1,2,0.4
								c1.1-1,0.9-2.7,0.7-4.1c-0.3-1.4-0.6-3.1,0.3-4.2c0.9-1.2,3.3-0.8,3.2,0.6c-0.1,0.9-1.1,1.5-1,2.3c0,0.9,1.1,1.3,2,1.3
								c0.9,0,1.8-0.3,2.6-0.1c0.9,0.2,1.6,1.3,0.9,2c-1.1,1.2-3.9-0.9-4.4,0.6c-0.2,0.4,0,0.8,0,1.2c-0.1,1.3-1.7,1.7-3,1.9
								c-1.3,0.1-2.6,0.3-3.8-0.3c-1.2-0.5-1.9-2.1-1.3-3.1c-0.6-0.5-1.6,0-2,0.7c-0.3,0.7-0.2,1.6-0.1,2.4c-1.3-0.3-2.6,0.8-3.3,2
								c-0.8,1.1-1.5,2.5-2.8,2.9c-1.3,0.4-3.1-0.1-3.8,1c-0.9,1.6,1.7,3.5,0.8,5.1c-0.5,0.9-1.8,0.8-2.7,1.1
								c-2.6,0.7-3.5,4.5-1.7,6.6c1.8,2,5.3,1.9,7.2,0c1.3-1.3,1.8-3.2,2.8-4.8c0.9-1.6,2.7-3,4.5-2.5c0.7,0.2,1.3,0.7,1.9,1.2
								c0.9,0.7,1.7,1.5,2.6,2.2c0.6,0.5,1.2,1,1.1,1.8c-0.1,0.6-0.5,1-0.7,1.6c-0.5,1.6,1.7,3.1,3.1,2.2c1.4-0.9,1.6-3,0.6-4.4
								c-1.3-1.9-4.4-2.8-4.3-5.1c1.6-1.3,4,0.1,4.9,1.9c0.9,1.8,0.9,3.9,1.7,5.8c0.8,1.9,2.9,3.5,4.7,2.6c-0.5-1.6-0.9-3.2-1.4-4.8
								c1.1-0.9,2.4,1.6,3.8,1.2c0.8-0.3,0.9-1.5,0.6-2.3c-0.3-0.8-1-1.5-1.2-2.3c-0.3-1.6,1.5-3,3.1-2.7c1.6,0.3,2.7,1.8,3,3.3
								c0.1,0.6,0.1,1.3,0.4,1.9c0.6,1.2,2.1,1.6,3.4,2.1c1.3,0.5,2.6,1.8,2.1,3.1c-0.2,0.6-0.8,1.1-0.6,1.7
								c0.2,0.5,0.9,0.7,0.9,1.3c0,0.4-0.4,0.6-0.7,0.8c-0.9,0.3-1.8,0.5-2.6,0.9c-0.8,0.4-1.6,1.2-1.5,2.1c0.1,1.3,1.6,1.9,2.4,3
								c0.7,1,0.6,2.4,1,3.5c0.4,1.1,1.3,1.9,2,2.8c2.1,2.9,2.7,6.7,3.7,10.2c0.5,1.6,1.3,3.3,2.9,3.6c0.9,0.2,1.8-0.2,2.6-0.5
								c2.3-0.9,4.7-1.9,6.3-3.8c1.6-1.9,2.2-5,0.5-6.8c-0.2-0.2-0.5-0.5-0.8-0.5c-0.4-0.1-0.8,0.2-1.2,0.4
								c-1.2,0.5-2.6,0.1-3.6-0.8c-1-0.9-1.6-2.1-2.1-3.2c-0.6-1.3-1.3-2.6-1.9-3.9c0.8-0.6,2-0.4,2.8,0.3c0.8,0.6,1.3,1.6,1.9,2.3
								c1.9,2.4,5.1,3.5,8.2,3.8c0.8,0.1,1.6,0.2,2.3,0.5c2.3,1,3,4.4,5.4,5.2c0.7,0.2,1.4,0.2,2.1,0.5c1,0.5,1.4,1.5,1.7,2.6
								c0.5,1.9,0.7,3.9,1.5,5.7c0.8,1.8,2.4,3.5,4.4,3.5c1.2,0,2.4-0.6,3.3-1.5v0c0.1-1.8,0.2-3.6,0.2-5.4
								C341.1,104.3,341.1,103.9,341,103.5z"/>
						</g>
					</g>
				</g>
				<g>
					<g>
						<g>
							<path class="st1" d="M307.9,137.5c-1.2,0.2-1.5,1-2.1,1.9c-0.9,1.2-2.1,2.4-2.9,3.5c-1.3,2-0.1,5-1.9,6.7
								c-0.4,0.3-0.8,0.6-1.1,0.9c-0.7,0.8-0.4,2.2,0.4,2.9c0.9,0.7,2.1,0.6,3,0.1c0.9-0.5,1.5-1.5,1.9-2.6c0.2-0.7,0.4-1.6,0.9-2.1
								c1-0.9,2.6-0.2,3.9-0.4C315.7,147.5,313.2,136.4,307.9,137.5z"/>
						</g>
					</g>
				</g>
			</g>
		</g>
	</g>
	<g>
		<g>
			<rect x="352" y="156.1" class="st3" width="107.4" height="80.2"/>
		</g>
		<g>
			<rect x="352" y="156.1" class="st1" width="107.4" height="8.1"/>
		</g>
		<g>
			<path class="st3" d="M357.1,160.1c0,0.6-0.5,1.1-1.1,1.1s-1.1-0.5-1.1-1.1c0-0.6,0.5-1.1,1.1-1.1S357.1,159.5,357.1,160.1z"/>
		</g>
		<g>
			<path class="st3" d="M360.5,160.1c0,0.6-0.5,1.1-1.1,1.1c-0.6,0-1.1-0.5-1.1-1.1c0-0.6,0.5-1.1,1.1-1.1
				C360,159,360.5,159.5,360.5,160.1z"/>
		</g>
		<g>
			<path class="st3" d="M363.9,160.1c0,0.6-0.5,1.1-1.1,1.1s-1.1-0.5-1.1-1.1c0-0.6,0.5-1.1,1.1-1.1S363.9,159.5,363.9,160.1z"/>
		</g>
	</g>
	<g>
		<g>
			<rect x="340.2" y="170.1" class="st2" width="107.4" height="80.2"/>
		</g>
		<g>
			<rect x="340.2" y="170.1" class="st1" width="107.4" height="8.1"/>
		</g>
		<g>
			<path class="st3" d="M345.3,174.2c0,0.6-0.5,1.1-1.1,1.1c-0.6,0-1.1-0.5-1.1-1.1s0.5-1.1,1.1-1.1
				C344.8,173.1,345.3,173.6,345.3,174.2z"/>
		</g>
		<g>
			<path class="st3" d="M348.6,174.2c0,0.6-0.5,1.1-1.1,1.1c-0.6,0-1.1-0.5-1.1-1.1s0.5-1.1,1.1-1.1
				C348.2,173.1,348.6,173.6,348.6,174.2z"/>
		</g>
		<g>
			<circle class="st3" cx="350.9" cy="174.2" r="1.1"/>
		</g>
	</g>
	<g>
		<g>
			<rect x="322.2" y="184.3" class="st3" width="107.4" height="80.2"/>
		</g>
		<g>
			<rect x="322.2" y="184.3" class="st1" width="107.4" height="8.1"/>
		</g>
		<g>
			<path class="st3" d="M327.3,188.4c0,0.6-0.5,1.1-1.1,1.1c-0.6,0-1.1-0.5-1.1-1.1c0-0.6,0.5-1.1,1.1-1.1
				C326.8,187.3,327.3,187.8,327.3,188.4z"/>
		</g>
		<g>
			<path class="st3" d="M330.7,188.4c0,0.6-0.5,1.1-1.1,1.1c-0.6,0-1.1-0.5-1.1-1.1c0-0.6,0.5-1.1,1.1-1.1
				C330.2,187.3,330.7,187.8,330.7,188.4z"/>
		</g>
		<g>
			<path class="st3" d="M334.1,188.4c0,0.6-0.5,1.1-1.1,1.1c-0.6,0-1.1-0.5-1.1-1.1c0-0.6,0.5-1.1,1.1-1.1
				C333.6,187.3,334.1,187.8,334.1,188.4z"/>
		</g>
	</g>
	<g>
		<g>
			<path class="st2" d="M384.6,264.5c0,0,0,0.1,0,0.3c0,0.2,0,0.6,0,0.9c0,0.9,0,2.1,0,3.6c0,3.2,0,7.8,0.1,13.5l0,0.2l-0.2,0
				c-12.2,0-29.6,0-49,0.1c-18.6,0-35.4-0.1-47.7-0.1c-6.1,0-11-0.1-14.4-0.1c-1.7,0-3,0-3.9,0c-0.4,0-0.8,0-1,0c-0.2,0-0.3,0-0.3,0
				s0.1,0,0.3,0c0.3,0,0.6,0,1,0c0.9,0,2.2,0,3.9,0c3.4,0,8.4,0,14.4-0.1c12.2,0,29.1,0,47.7-0.1c19.3,0,36.8,0.1,49,0.1l-0.2,0.2
				c0-5.7,0.1-10.3,0.1-13.5c0-1.6,0-2.8,0-3.6c0-0.4,0-0.7,0-0.9C384.6,264.6,384.6,264.5,384.6,264.5z"/>
		</g>
	</g>
	<g>
		<g>
			<path class="st2" d="M383.6,156c-0.1,0-0.3-9.2-0.3-20.5c0-11.3,0.1-20.5,0.3-20.5s0.3,9.2,0.3,20.5
				C383.9,146.8,383.8,156,383.6,156z"/>
		</g>
	</g>
</g>
<g id="Background_Simple" class="st6">
	<g class="st7">
		<path class="st3" d="M94,178.9l1.7-3.5c14-29.2,42.6-48.8,74.7-49.9c4.1-0.1,8.3,0,12.4,0.5c29.6,3.4,56.9,22.8,70.1,49.8
			c7.8,15.9,11.3,34.7,24.3,46.7c16.8,15.6,42.7,13.6,65.3,10.7c22.6-2.9,48.4-4.8,65.2,10.8c10.5,9.8,15,24.7,15.7,39.2
			c1.7,38.2-21.5,74.8-53.5,95s-71.5,25.6-109.1,21.8c-52.7-5.4-104.6-29.1-138.4-70.4S75.1,228.9,94,178.9z"/>
	</g>
	<g class="st7">
		<circle class="st3" cx="319.1" cy="169.1" r="36.4"/>
	</g>
</g>
<g id="Plant">
	<g>
		<g>
			<g>
				<g>
					<path class="st8" d="M426.4,365.3c-7.8-12-6.7-29.1,2.7-40c2.9-3.4,7-6.3,11.4-5.9c4.5,0.4,8.2,4.3,9.6,8.6
						c1.4,4.3,0.9,9,0.1,13.5c-1.1,6.3-3,12.7-7.4,17.4C438.4,363.6,432,368.4,426.4,365.3"/>
				</g>
			</g>
			<g>
				<g>
					<path class="st8" d="M430.8,423c-3-6.9-0.8-15.6,5-20.4c1.8-1.5,4.2-2.6,6.4-2c2.3,0.6,3.8,2.9,4.2,5.3c0.3,2.4-0.4,4.7-1.2,7
						c-1.2,3.1-2.7,6.3-5.4,8.3C437.1,423.2,433.4,425.1,430.8,423"/>
				</g>
			</g>
			<g>
				<g>
					<path class="st8" d="M411.9,418.9c2.2-10.6-3.4-22.4-13.1-27.4c-3-1.6-6.7-2.5-9.7-1c-3.1,1.5-4.6,5.3-4.3,8.7
						c0.2,3.4,1.9,6.6,3.7,9.5c2.6,4.1,5.7,8.1,10.1,10.1C402.9,421.1,408.8,422.6,411.9,418.9"/>
				</g>
			</g>
			<g>
				<g>
					<path class="st8" d="M413.2,390.2c3.8-12.1-2.6-26.8-13.2-33.8c-3.3-2.2-7.5-3.7-11.1-2.3c-3.8,1.4-5.9,5.6-6.1,9.7
						c-0.1,4,1.4,7.9,3.2,11.5c2.5,5.1,5.7,10.1,10.5,13C401.4,391.2,409.2,394.1,413.2,390.2"/>
				</g>
			</g>
			<g>
				<g>
					<g>
						<path class="st4" d="M420.8,449.4c0,0-0.1-0.2-0.1-0.6c-0.1-0.4-0.1-1-0.3-1.7c-0.1-0.4-0.1-0.8-0.2-1.2
							c-0.1-0.4-0.2-0.9-0.3-1.4c-0.2-1-0.4-2.2-0.7-3.5c-0.2-0.6-0.3-1.3-0.5-2c-0.2-0.7-0.4-1.4-0.6-2.2c-0.4-1.5-1-3.1-1.6-4.7
							c-1.2-3.3-2.8-6.8-4.7-10.4c-1.9-3.6-4-6.8-6.1-9.6c-1.1-1.4-2-2.7-3.1-3.9c-0.5-0.6-1-1.2-1.5-1.7c-0.5-0.5-1-1-1.4-1.5
							c-0.9-1-1.8-1.8-2.5-2.5c-0.4-0.4-0.7-0.7-1-1c-0.3-0.3-0.6-0.6-0.9-0.8c-0.5-0.5-0.9-0.8-1.3-1.1c-0.3-0.3-0.4-0.4-0.4-0.4
							c0,0,0.2,0.1,0.5,0.3c0.3,0.3,0.8,0.6,1.3,1.1c0.3,0.2,0.6,0.5,1,0.8c0.3,0.3,0.7,0.6,1.1,1c0.8,0.7,1.7,1.5,2.6,2.5
							c0.5,0.5,0.9,1,1.4,1.5c0.5,0.6,1,1.1,1.5,1.7c1.1,1.2,2,2.5,3.1,3.9c2.1,2.8,4.2,6.1,6.1,9.7c1.9,3.6,3.4,7.2,4.7,10.5
							c0.6,1.7,1.1,3.2,1.5,4.8c0.2,0.8,0.4,1.5,0.6,2.2c0.2,0.7,0.3,1.4,0.5,2c0.3,1.3,0.5,2.5,0.7,3.5c0.1,0.5,0.2,1,0.2,1.5
							c0,0.4,0.1,0.9,0.1,1.2c0.1,0.7,0.1,1.3,0.2,1.7C420.8,449.2,420.8,449.4,420.8,449.4z"/>
					</g>
				</g>
			</g>
			<g>
				<g>
					<g>
						<path class="st4" d="M420.5,451.6c0,0,0-0.1,0-0.2c0-0.2,0-0.4,0.1-0.7c0.1-0.7,0.1-1.6,0.2-2.7c0.1-0.6,0.1-1.2,0.2-1.9
							c0.1-0.7,0.1-1.5,0.1-2.3c0.1-1.7,0.2-3.6,0.2-5.7c0-1,0-2.1,0-3.3c0-1.1-0.1-2.3-0.2-3.6c-0.1-2.5-0.4-5.1-0.7-7.8
							c-0.8-5.5-1.9-11.5-3.7-17.6c-1.8-6.1-4.1-11.8-6.5-16.8c-1.3-2.5-2.4-4.8-3.7-7c-0.6-1.1-1.2-2.1-1.8-3.1
							c-0.6-1-1.2-1.9-1.8-2.8c-1.1-1.8-2.3-3.3-3.2-4.7c-0.5-0.7-0.9-1.3-1.4-1.9c-0.4-0.6-0.9-1.1-1.2-1.5
							c-0.7-0.9-1.3-1.6-1.7-2.1c-0.2-0.2-0.3-0.4-0.4-0.6c-0.1-0.1-0.1-0.2-0.1-0.2c0,0,0.1,0.1,0.2,0.2c0.1,0.1,0.3,0.3,0.5,0.5
							c0.4,0.5,1,1.2,1.8,2.1c0.4,0.5,0.8,1,1.3,1.5c0.4,0.6,0.9,1.2,1.4,1.9c1,1.3,2.2,2.8,3.3,4.6c0.6,0.9,1.2,1.8,1.8,2.8
							c0.6,1,1.2,2,1.8,3.1c1.3,2.1,2.5,4.5,3.7,7c2.4,5,4.7,10.7,6.6,16.9c1.8,6.2,3,12.2,3.7,17.7c0.3,2.8,0.6,5.4,0.7,7.9
							c0,1.2,0.1,2.4,0.1,3.6c0,1.1,0,2.2,0,3.3c0,2.1-0.1,4-0.2,5.7c-0.1,0.8-0.1,1.6-0.2,2.3c-0.1,0.7-0.2,1.4-0.2,1.9
							c-0.1,1.1-0.3,2-0.3,2.7c0,0.3-0.1,0.5-0.1,0.7C420.5,451.5,420.5,451.6,420.5,451.6z"/>
					</g>
				</g>
			</g>
			<g>
				<g>
					<g>
						<path class="st4" d="M440.9,333.9c0,0,0,0.1-0.1,0.2c-0.1,0.2-0.2,0.4-0.3,0.6c-0.3,0.6-0.8,1.4-1.3,2.4
							c-0.3,0.5-0.6,1.1-1,1.7c-0.3,0.7-0.7,1.4-1,2.1c-0.4,0.8-0.8,1.6-1.2,2.4c-0.4,0.9-0.8,1.8-1.2,2.8c-0.4,1-0.9,2-1.3,3.1
							c-0.4,1.1-0.9,2.2-1.3,3.4c-0.2,0.6-0.5,1.2-0.7,1.8c-0.2,0.6-0.4,1.2-0.6,1.9c-0.4,1.3-0.9,2.6-1.3,3.9
							c-1.7,5.4-3.2,11.4-4.6,17.7c-1.3,6.4-2.2,12.5-2.9,18.1c-0.6,5.6-1,10.7-1.1,14.9c-0.1,2.1-0.1,4.1-0.1,5.7
							c0,1.7,0,3.1,0,4.3c0,1.2,0,2.1,0,2.7c0,0.3,0,0.5,0,0.7c0,0.2,0,0.2,0,0.2c0,0,0-0.1,0-0.2c0-0.2,0-0.4,0-0.7
							c0-0.7-0.1-1.6-0.1-2.7c-0.1-1.2-0.1-2.6-0.1-4.3c0-1.7,0-3.6,0.1-5.8c0.1-4.3,0.5-9.3,1-15c0.6-5.6,1.5-11.7,2.8-18.1
							c1.3-6.4,2.9-12.4,4.6-17.8c0.5-1.3,0.9-2.6,1.3-3.9c0.2-0.6,0.4-1.3,0.6-1.9c0.2-0.6,0.5-1.2,0.7-1.8
							c0.5-1.2,0.9-2.3,1.3-3.4c0.4-1.1,0.9-2.1,1.4-3.1c0.4-1,0.8-1.9,1.3-2.8c0.4-0.9,0.9-1.7,1.2-2.4c0.4-0.7,0.8-1.4,1.1-2.1
							c0.3-0.6,0.7-1.2,1-1.7c0.6-1,1.1-1.8,1.4-2.3c0.2-0.2,0.3-0.4,0.4-0.6C440.8,334,440.9,333.9,440.9,333.9z"/>
					</g>
				</g>
			</g>
			<g>
				<g>
					<g>
						<path class="st4" d="M438.2,407.5c0,0-0.3,0.5-0.8,1.5c-0.6,0.9-1.4,2.3-2.3,4c-0.9,1.7-1.9,3.8-3,6.1c-1,2.3-2,5-2.9,7.8
							c-0.9,2.8-1.5,5.5-2,8.1c-0.5,2.5-0.8,4.8-1,6.7c-0.2,1.9-0.3,3.5-0.4,4.6c-0.1,1.1-0.1,1.7-0.1,1.7c0,0-0.1-0.6-0.1-1.7
							c0-1.1,0-2.7,0.2-4.6c0.1-1.9,0.4-4.2,0.9-6.8c0.5-2.5,1.1-5.3,2-8.1c0.9-2.8,1.9-5.5,2.9-7.8c1.1-2.3,2.1-4.4,3.1-6.1
							c1-1.7,1.8-3,2.4-3.9C437.8,408,438.2,407.5,438.2,407.5z"/>
					</g>
				</g>
			</g>
		</g>
		<g>
			<g>
				<polygon class="st9" points="405.3,444 439.8,444 435.6,479.2 409.6,479.2 				"/>
			</g>
		</g>
		<g>
			<g>
				<polygon class="st4" points="406.6,475.4 409.5,479.2 435.6,479.2 438.6,475.5 				"/>
			</g>
		</g>
		<g>
			<g>
				<g>
					<path class="st0" d="M438.5,454.3c0,0.1-7.1,0.3-16,0.3c-8.8,0-16-0.1-16-0.3c0-0.1,7.1-0.3,16-0.3
						C431.3,454.1,438.5,454.2,438.5,454.3z"/>
				</g>
			</g>
		</g>
		<g>
			<g>
				<g>
					<path class="st0" d="M438.5,456.7c0,0.1-7.1,0.3-16,0.3c-8.8,0-16-0.1-16-0.3c0-0.1,7.1-0.3,16-0.3
						C431.3,456.4,438.5,456.5,438.5,456.7z"/>
				</g>
			</g>
		</g>
		<g>
			<g>
				<g>
					<path class="st0" d="M438,458.9c0,0.1-6.9,0.3-15.4,0.3c-8.5,0-15.4-0.1-15.4-0.3c0-0.1,6.9-0.3,15.4-0.3
						C431.1,458.7,438,458.8,438,458.9z"/>
				</g>
			</g>
		</g>
	</g>
</g>
<g id="Search">
	<g>
		<g>
			<g>
				<path class="st10" d="M388.3,75.4H130.2c-10.5,0-19.1,8.5-19.1,19.1l0,0c0,10.5,8.5,19.1,19.1,19.1h184.9h28.5h44.7
					c10.5,0,19.1-8.5,19.1-19.1v0C407.3,83.9,398.8,75.4,388.3,75.4z"/>
			</g>
			<g>
				<g>
					<path class="st8" d="M388.8,113.5h-37.3V75.4h37.3c10.2,0,18.5,8.3,18.5,18.5v1C407.3,105.2,399,113.5,388.8,113.5z"/>
				</g>
			</g>
			<g>
				<g>
					<g>
						<path class="st10" d="M376.5,99.7c-4.6,0-8.3-3.7-8.3-8.3s3.7-8.3,8.3-8.3s8.3,3.7,8.3,8.3S381.1,99.7,376.5,99.7z
							 M376.5,84.3c-3.9,0-7.1,3.2-7.1,7.1c0,3.9,3.2,7.1,7.1,7.1c3.9,0,7.1-3.2,7.1-7.1C383.6,87.5,380.4,84.3,376.5,84.3z"/>
					</g>
				</g>
				<g>
					<g>
						<path class="st10" d="M389,105c-0.2,0-0.3-0.1-0.4-0.2l-7.3-7.3c-0.2-0.2-0.2-0.6,0-0.9c0.2-0.2,0.6-0.2,0.9,0l7.3,7.3
							c0.2,0.2,0.2,0.6,0,0.9C389.3,104.9,389.1,105,389,105z"/>
					</g>
				</g>
			</g>
		</g>
		<g>
			<g>
				<g>
					<g>
						<g>
							<path class="st1" d="M145.8,94c0,0-0.1-0.2-0.1-0.7c0-0.2,0-0.5-0.1-0.8c-0.1-0.3-0.1-0.7-0.2-1.1c-0.2-0.8-0.6-1.8-1.2-2.9
								c-0.6-1-1.5-2.1-2.7-3.1c-1.2-0.9-2.7-1.7-4.5-2c-1.7-0.3-3.7-0.3-5.6,0.4c-0.9,0.3-1.9,0.8-2.7,1.4c-0.4,0.3-0.8,0.7-1.2,1
								c-0.4,0.4-0.7,0.8-1.1,1.2c-1.3,1.7-2.1,3.9-2.1,6.3c0,2.3,0.7,4.5,2,6.3c0.3,0.5,0.7,0.8,1,1.2c0.4,0.4,0.8,0.7,1.2,1
								c0.8,0.6,1.7,1.1,2.7,1.5c1.9,0.7,3.8,0.8,5.6,0.6c1.8-0.3,3.3-1,4.5-1.9c1.2-0.9,2.1-2,2.8-3c0.6-1,1.1-2,1.3-2.8
								c0.1-0.4,0.2-0.8,0.3-1.1c0.1-0.3,0.1-0.6,0.1-0.8C145.7,94.2,145.8,94,145.8,94c0,0,0,0.2,0,0.7c0,0.2,0,0.5-0.1,0.8
								c0,0.3-0.1,0.7-0.2,1.1c-0.2,0.9-0.6,1.9-1.2,3c-0.6,1.1-1.6,2.2-2.8,3.2c-1.3,0.9-2.9,1.7-4.7,2.1c-1.8,0.3-3.9,0.2-5.9-0.5
								c-1-0.4-1.9-0.9-2.8-1.5c-0.5-0.3-0.8-0.7-1.3-1.1c-0.4-0.4-0.8-0.8-1.1-1.3c-1.4-1.8-2.1-4.2-2.1-6.7c0-2.4,0.9-4.8,2.3-6.6
								c0.3-0.5,0.7-0.9,1.1-1.3c0.4-0.4,0.8-0.8,1.3-1.1c0.9-0.6,1.9-1.2,2.9-1.5c2-0.7,4.1-0.7,5.9-0.4c1.8,0.4,3.4,1.2,4.6,2.2
								c1.2,1,2.1,2.1,2.7,3.2c0.6,1.1,1,2.1,1.1,3c0.1,0.4,0.1,0.8,0.2,1.1c0,0.3,0.1,0.6,0,0.8C145.8,93.8,145.8,94,145.8,94z"/>
						</g>
					</g>
				</g>
			</g>
			<g>
				<g>
					<g>
						<g>
							<path class="st1" d="M143.5,87.2c0,0-0.2,0.2-0.5,0.5c-0.2,0.2-0.4,0.3-0.7,0.5c-0.1,0.1-0.3,0.2-0.4,0.3
								c-0.2,0.1-0.3,0.2-0.5,0.3c-1.4,0.9-3.8,1.8-6.4,1.7c-0.3,0-0.7,0-1,0c-0.3,0-0.6-0.1-0.9-0.1c-0.2,0-0.3,0-0.5-0.1
								c-0.1,0-0.3-0.1-0.4-0.1c-0.3-0.1-0.6-0.1-0.8-0.2c-1.1-0.4-2-0.8-2.7-1.2c-1.5-0.9-2.2-1.7-2.1-1.7c0.1-0.1,0.9,0.6,2.3,1.3
								c0.7,0.4,1.7,0.7,2.7,1.1c0.3,0.1,0.5,0.1,0.8,0.2c0.1,0,0.3,0.1,0.4,0.1c0.1,0,0.3,0,0.4,0.1c0.3,0,0.6,0.1,0.9,0.1
								c0.3,0,0.6,0,0.9,0c2.5,0.1,4.7-0.7,6.2-1.5c0.2-0.1,0.4-0.2,0.5-0.2c0.2-0.1,0.3-0.2,0.5-0.3c0.3-0.2,0.5-0.3,0.7-0.4
								C143.3,87.3,143.5,87.2,143.5,87.2z"/>
						</g>
					</g>
				</g>
			</g>
			<g>
				<g>
					<g>
						<g>
							<path class="st1" d="M126.2,100.7c0,0,0.2-0.2,0.5-0.5c0.2-0.2,0.4-0.3,0.7-0.5c0.1-0.1,0.3-0.2,0.4-0.3
								c0.2-0.1,0.3-0.2,0.5-0.3c1.4-0.9,3.8-1.8,6.4-1.7c0.3,0,0.7,0,1,0c0.3,0,0.6,0.1,0.9,0.1c0.2,0,0.3,0,0.5,0.1
								c0.1,0,0.3,0.1,0.4,0.1c0.3,0.1,0.6,0.1,0.8,0.2c1.1,0.4,2,0.8,2.7,1.2c1.5,0.9,2.2,1.7,2.1,1.7c-0.1,0.1-0.9-0.6-2.3-1.3
								c-0.7-0.4-1.7-0.7-2.7-1.1c-0.3-0.1-0.5-0.1-0.8-0.2c-0.1,0-0.3-0.1-0.4-0.1c-0.1,0-0.3,0-0.4-0.1c-0.3,0-0.6-0.1-0.9-0.1
								c-0.3,0-0.6,0-0.9,0c-2.5-0.1-4.7,0.7-6.2,1.5c-0.2,0.1-0.4,0.2-0.5,0.2c-0.2,0.1-0.3,0.2-0.5,0.3c-0.3,0.2-0.5,0.3-0.7,0.4
								C126.5,100.6,126.2,100.7,126.2,100.7z"/>
						</g>
					</g>
				</g>
			</g>
			<g>
				<g>
					<g>
						<g>
							<path class="st1" d="M145.8,94.3c0,0.2-4.9,0.2-10.9,0.2c-6-0.1-10.9-0.3-10.9-0.4c0-0.2,4.9-0.2,10.9-0.2
								C140.9,93.9,145.8,94.1,145.8,94.3z"/>
						</g>
					</g>
				</g>
			</g>
			<g>
				<g>
					<g>
						<g>
							<path class="st1" d="M134.5,104.8c-0.2,0-0.2-4.9-0.2-10.9c0.1-6,0.3-10.9,0.4-10.9c0.2,0,0.2,4.9,0.2,10.9
								C134.9,99.9,134.7,104.8,134.5,104.8z"/>
						</g>
					</g>
				</g>
			</g>
			<g>
				<g>
					<g>
						<g>
							<path class="st1" d="M134.5,104.8c0,0.1-1.3-0.7-2.7-2.6c-0.7-0.9-1.4-2.1-2-3.5c-0.6-1.4-0.9-3.1-0.9-4.9
								c0-1.8,0.4-3.5,1-4.9c0.6-1.4,1.4-2.6,2.1-3.5c1.4-1.8,2.6-2.6,2.7-2.5c0.1,0.1-1,1-2.4,2.8c-0.7,0.9-1.4,2.1-1.9,3.4
								c-0.6,1.4-0.9,3-1,4.6c0,1.7,0.3,3.3,0.8,4.7c0.5,1.4,1.2,2.5,1.8,3.5C133.5,103.8,134.6,104.7,134.5,104.8z"/>
						</g>
					</g>
				</g>
			</g>
			<g>
				<g>
					<g>
						<g>
							<path class="st1" d="M135,83c0-0.1,1.3,0.7,2.7,2.6c0.7,0.9,1.4,2.1,2,3.5c0.6,1.4,0.9,3.1,0.9,4.9c0,1.8-0.4,3.5-1,4.9
								c-0.6,1.4-1.4,2.6-2.1,3.5c-1.4,1.8-2.6,2.6-2.7,2.5c-0.1-0.1,1-1,2.4-2.8c0.7-0.9,1.4-2.1,1.9-3.4c0.6-1.4,0.9-3,1-4.6
								c0-1.7-0.3-3.3-0.8-4.7c-0.5-1.4-1.2-2.5-1.8-3.5C136,83.9,134.9,83,135,83z"/>
						</g>
					</g>
				</g>
			</g>
		</g>
		<g>
			<g>
				<path class="st1" d="M156.2,108.1c-0.1,0-0.3-5.8-0.3-13c0-7.2,0.1-13,0.3-13c0.1,0,0.3,5.8,0.3,13
					C156.5,102.3,156.4,108.1,156.2,108.1z"/>
			</g>
		</g>
		<g>
			<path class="st4" d="M172.7,96.2v4.7h-1.1v-4.6c0-1.7-0.9-2.6-2.4-2.6c-1.7,0-2.8,1.1-2.8,2.9v4.2h-1.1V89.5h1.1v4.7
				c0.6-0.9,1.7-1.5,3-1.5C171.4,92.8,172.7,93.9,172.7,96.2z"/>
			<path class="st4" d="M179.9,100.4c-0.4,0.4-1.1,0.6-1.7,0.6c-1.5,0-2.4-0.9-2.4-2.3v-4.9h-1.4v-0.9h1.4v-1.8h1.1v1.8h2.5v0.9H177
				v4.8c0,0.9,0.5,1.5,1.4,1.5c0.4,0,0.9-0.1,1.2-0.4L179.9,100.4z"/>
			<path class="st4" d="M185.9,100.4c-0.4,0.4-1.1,0.6-1.7,0.6c-1.5,0-2.4-0.9-2.4-2.3v-4.9h-1.4v-0.9h1.4v-1.8h1.1v1.8h2.5v0.9H183
				v4.8c0,0.9,0.5,1.5,1.4,1.5c0.4,0,0.9-0.1,1.2-0.4L185.9,100.4z"/>
			<path class="st4" d="M196.1,96.9c0,2.5-1.7,4.1-4,4.1c-1.3,0-2.4-0.6-3.1-1.6v4.5h-1.1v-11h1v1.6c0.7-1.1,1.8-1.7,3.1-1.7
				C194.4,92.8,196.1,94.4,196.1,96.9z M195,96.9c0-1.9-1.3-3.1-3-3.1c-1.7,0-3,1.3-3,3.1c0,1.9,1.3,3.1,3,3.1
				C193.7,100,195,98.8,195,96.9z"/>
			<path class="st4" d="M197.6,93.6c0-0.5,0.4-0.8,0.8-0.8c0.4,0,0.8,0.4,0.8,0.8c0,0.5-0.4,0.8-0.8,0.8
				C198,94.5,197.6,94.1,197.6,93.6z M197.6,100.1c0-0.5,0.4-0.8,0.8-0.8c0.4,0,0.8,0.4,0.8,0.8c0,0.5-0.4,0.8-0.8,0.8
				C198,101,197.6,100.6,197.6,100.1z"/>
			<path class="st4" d="M205.4,88h1l-5.1,14.4h-1L205.4,88z"/>
			<path class="st4" d="M218.8,92.9l-3,8.1h-1l-2.5-6.6l-2.5,6.6h-1l-3-8.1h1l2.5,6.8l2.6-6.8h0.9l2.6,6.8l2.6-6.8H218.8z"/>
			<path class="st4" d="M232.1,92.9l-3,8.1h-1l-2.5-6.6l-2.5,6.6h-1l-3-8.1h1l2.5,6.8l2.6-6.8h0.9l2.6,6.8l2.6-6.8H232.1z"/>
			<path class="st4" d="M245.5,92.9l-3,8.1h-1l-2.5-6.6l-2.5,6.6h-1l-3-8.1h1l2.5,6.8l2.6-6.8h0.9l2.6,6.8l2.6-6.8H245.5z"/>
			<path class="st4" d="M245.9,100.1c0-0.5,0.4-0.8,0.8-0.8s0.8,0.4,0.8,0.8c0,0.5-0.4,0.8-0.8,0.8S245.9,100.6,245.9,100.1z"/>
		</g>
		<g>
			<g>
				<g>
					<path class="st8" d="M253.9,105.4c-0.2,0-0.3-3.7-0.3-8.3c0-4.6,0.1-8.3,0.3-8.3c0.2,0,0.3,3.7,0.3,8.3
						C254.3,101.7,254.1,105.4,253.9,105.4z"/>
				</g>
			</g>
		</g>
		<g>
			<g>
				<path class="st4" d="M388.3,75.4c0,0,0.6,0,1.6,0.1c0.5,0,1.2,0.2,2,0.3c0.4,0.1,0.8,0.2,1.3,0.3c0.5,0.1,0.9,0.2,1.4,0.4
					c2,0.7,4.4,1.9,6.7,4c0.6,0.5,1.1,1.1,1.7,1.7c0.3,0.3,0.5,0.7,0.8,1l0.4,0.5l0.3,0.6c1,1.5,1.7,3.3,2.3,5.2
					c1.1,3.9,0.9,8.7-1.2,13.1c-2.1,4.4-6.2,8.5-11.8,10.2c-1.4,0.4-2.8,0.7-4.3,0.8c-1.5,0.1-3,0-4.5,0.1c-3.1,0-6.2,0-9.4,0
					c-6.5,0-13.3,0-20.5,0c-57.5,0-137,0-224.8,0.1c-5.6,0-11-2.5-14.6-6.7c-3.7-4.1-5.3-9.9-4.5-15.2c0.7-5.4,3.8-10.3,8.2-13.3
					c2.2-1.5,4.7-2.5,7.3-3c2.6-0.5,5.2-0.3,7.8-0.3c20.7,0,40.7,0,59.7,0c38,0,72.3,0,101.1,0.1c28.8,0,52,0.1,68.1,0.1
					c8,0,14.3,0,18.5,0c2.1,0,3.7,0,4.8,0C387.7,75.4,388.3,75.4,388.3,75.4s-0.6,0-1.6,0c-1.1,0-2.7,0-4.8,0c-4.2,0-10.5,0-18.5,0
					c-16.1,0-39.4,0-68.1,0.1c-28.8,0-63,0-101.1,0.1c-19,0-39,0-59.7,0c-2.6,0-5.2-0.2-7.7,0.3c-2.5,0.5-5,1.5-7.1,3
					c-4.3,2.9-7.3,7.7-8,13c-0.7,5.2,0.8,10.8,4.4,14.8c3.5,4.1,8.8,6.5,14.2,6.5c87.8,0,167.3,0.1,224.8,0.1c7.2,0,14,0,20.5,0
					c3.2,0,6.4,0,9.4,0c1.5,0,3,0.1,4.5-0.1c1.5-0.1,2.9-0.4,4.3-0.7c5.5-1.6,9.6-5.6,11.7-10c2.1-4.4,2.3-9.1,1.2-13
					c-0.5-1.9-1.3-3.7-2.2-5.2l-0.3-0.6l-0.4-0.5c-0.3-0.3-0.5-0.7-0.8-1c-0.6-0.6-1.1-1.2-1.7-1.7c-2.3-2.1-4.6-3.3-6.6-4
					c-0.5-0.2-1-0.3-1.4-0.4c-0.5-0.1-0.9-0.2-1.3-0.3c-0.8-0.1-1.5-0.3-2-0.3C388.8,75.4,388.3,75.4,388.3,75.4z"/>
			</g>
		</g>
	</g>
</g>
<g id="Character">
	<g>
		<g>
			<g>
				<g>
					<path class="st4" d="M79.5,441.5l-15.9,37.8l-11.2-0.1l4.9-37.7L79.5,441.5z"/>
				</g>
				<g>
					<path class="st4" d="M140.6,441.6l-15.7,37.6l-11.2-0.1l4.9-37.6L140.6,441.6z"/>
				</g>
				<g>
					<path class="st9" d="M53.3,214.8c6.2-9.2,127.8-10.6,133-1l44.5,84.5l66.9-3.1c0,0,9-0.4,17.8,8c4.3,4.1,4.1,30.3,2.9,40.4
						c-0.8,6.7-11.1,98.3-11.1,98.3l-251.9-0.5C55.4,441.4,47.2,224,53.3,214.8z"/>
				</g>
				<g>
					<g>
						<path class="st4" d="M126.8,443.8c0,0,0-0.3,0-0.8c0-0.6,0-1.3,0.1-2.4c0.1-2.1,0.1-5.1,0.2-9c0.2-7.9,0.4-19.2,0.7-33
							l-0.2,0.2c20.6,0.1,47.4,0.3,76.5,0.5c30.4,0.2,58.3,0.3,79.3,0.4l-0.2-0.2c2.2,12.9,1.9,23.6,1.4,30.9
							c-0.3,3.7-0.6,6.5-0.9,8.4c-0.1,0.9-0.2,1.7-0.3,2.2c-0.1,0.5-0.1,0.7-0.1,0.7s0.9-4,1.5-11.3c0.6-7.3,0.9-18-1.2-31l0-0.2
							l-0.2,0c-21-0.2-48.8-0.3-79.3-0.6c-29.1-0.2-55.9-0.3-76.5-0.4l-0.2,0l0,0.2c-0.2,13.9-0.4,25.2-0.5,33c0,3.9-0.1,7-0.1,9
							c0,1,0,1.8,0,2.4C126.8,443.5,126.8,443.8,126.8,443.8z"/>
					</g>
				</g>
				<g>
					<g>
						<path class="st4" d="M134.6,302c0,0-0.2,0-0.5,0c-0.3,0-0.8,0-1.5,0.1c-1.3,0.1-3.3,0.6-5.6,1.7c-2.3,1.2-4.8,3.2-7,6.2
							c-2.2,3-3.9,7-4.8,11.7c-0.9,4.7-1,9.9-1,15.6c0,5.7,0.2,11.8,0.6,18.2c0.7,13,2.4,27.4,4.1,43l0,0.2l0.2,0
							c19.6,0.1,41.1,0.3,63.7,0.4c44.7,0.3,85.4,0.5,115.5,0.7l0.2,0l0-0.2c0.5-8.5,0-16.3-1.1-23c-1.2-6.7-3.2-12.3-6-16.2
							c-1.4-2-2.9-3.5-4.5-4.5c-0.2-0.1-0.4-0.3-0.6-0.4c-0.2-0.1-0.4-0.2-0.6-0.3c-0.4-0.2-0.7-0.4-1.1-0.6c-0.7-0.3-1.4-0.5-2-0.7
							c-0.6-0.1-1.2-0.2-1.6-0.3c-0.5-0.1-0.9-0.1-1.2-0.1c-0.6,0-1-0.1-1-0.1s0.3,0,1,0.1c0.3,0,0.7,0.1,1.2,0.1
							c0.5,0.1,1,0.2,1.6,0.4c0.6,0.2,1.2,0.4,2,0.7c0.3,0.2,0.7,0.4,1.1,0.6c0.2,0.1,0.4,0.2,0.6,0.3c0.2,0.1,0.4,0.3,0.5,0.4
							c1.5,1,3,2.5,4.4,4.5c2.7,3.9,4.7,9.5,5.8,16.2c1.1,6.7,1.6,14.4,1,22.9l0.2-0.2c-30.1-0.2-70.8-0.5-115.5-0.8
							c-22.6-0.1-44.1-0.3-63.7-0.4l0.2,0.2c-1.8-15.6-3.4-30-4.2-43c-0.4-6.5-0.6-12.6-0.6-18.2c0-5.6,0.1-10.9,1-15.5
							c0.8-4.6,2.5-8.6,4.7-11.6c2.2-3,4.7-5,6.9-6.2c2.3-1.2,4.2-1.7,5.5-1.8C133.9,302,134.6,302.1,134.6,302z"/>
					</g>
				</g>
				<g>
					<polygon class="st4" points="303.6,441.9 307.3,479.2 296,479.1 282,441.9 					"/>
				</g>
			</g>
			<g>
				<g>
					<path class="st4" d="M282.6,354.1c0,0-0.4,0-1.1-0.1c-0.8-0.1-1.8-0.3-3-0.5c-2.5-0.4-6-1-9.9-1.5c-3.9-0.4-7.4-0.5-10-0.5
						c-1.2,0-2.2,0-3,0c-0.7,0-1.1,0-1.1,0c0,0,0.4-0.1,1.1-0.2c0.7-0.1,1.8-0.1,3-0.2c2.6-0.1,6.2-0.1,10.1,0.3
						c3.9,0.4,7.4,1.1,9.9,1.6c1.3,0.3,2.3,0.5,3,0.7C282.2,353.9,282.6,354.1,282.6,354.1z"/>
				</g>
			</g>
			<g>
				<g>
					<path class="st4" d="M300.4,295.4c0,0-0.8,0.4-2.2,1.2c-1.4,0.8-3.4,2.1-5.5,4.1c-2.2,2-4.4,4.7-6.3,8c-2,3.3-3.6,7.2-4.7,11.5
						c-2.1,8.7-2,16.8-1.9,22.6c0.1,2.9,0.2,5.3,0.3,6.9c0,0.8,0,1.4,0.1,1.9c0,0.4,0,0.7,0,0.7c0,0,0-0.2-0.1-0.7
						c0-0.5-0.1-1.1-0.2-1.9c-0.1-1.6-0.3-4-0.4-6.9c-0.1-2.9-0.2-6.4,0-10.3c0.2-3.9,0.7-8.1,1.7-12.5c1.1-4.4,2.8-8.3,4.8-11.7
						c2-3.3,4.3-6,6.5-8c2.2-2,4.2-3.2,5.7-4c0.7-0.4,1.3-0.6,1.7-0.8C300.2,295.4,300.4,295.4,300.4,295.4z"/>
				</g>
			</g>
			<g class="st11">
				<g>
					<path d="M168.7,365.4c7.6,1.8,15.4,2.6,23.2,2.3c0.6,24.3,2.7,48.6,6.3,72.7c1.9,0.9,4,1.7,6.1,1.8c2.1,0.1,4.4-0.9,5.3-2.9
						c0.5-1.2,0.5-2.5,0.4-3.7c-1-24.2-3.5-48.4-7.5-72.3c-0.3-1.8-0.7-3.7-2.2-4.7c-1.4-1-3.3-0.7-5-0.4
						c-9.4,1.8-18.7,3.9-27.9,6.5"/>
				</g>
			</g>
			<g class="st11">
				<path d="M157.6,363.4l2.3,33.3c0,0,7.9-18,5.9-24.9C163.8,364.9,157.6,363.4,157.6,363.4z"/>
			</g>
		</g>
		<g>
			<g>
				<g>
					<g>
						<path class="st4" d="M155.6,231c-0.8-26.2-1.6-52.5-2.3-78.7l-2.5-4.5c-2.2-2-5.9-1.6-8.3,0.1c-2.4,1.7-3.8,4.6-4.8,7.4
							c-4.7,13.5-1,28.4-2,42.7c-0.2,3.1-0.7,6.3-2.5,8.9c-2.4,3.4-7,5.1-8.9,8.9c-1.7,3.4-0.4,8,2.8,10.1c-2.3,1.3-4.7,2.7-6.2,4.9
							s-1.9,5.4-0.3,7.4c1.8,2.2,5.2,2.2,8,2c8.1-0.7,16.1-2.3,23.9-4.7c1-0.3,2-0.7,2.6-1.5C155.6,233.1,155.6,232,155.6,231z"/>
					</g>
					<g>
						<g>
							<path class="st9" d="M138.9,217.5c0-0.1,1-0.2,2.2-1.5c1.2-1.3,2.1-3.7,2.3-6.8c0.4-6.2,0.6-14.8-0.1-24.2
								c-0.4-4.7-0.9-9.2-1.6-13.3c-0.7-4-1-7.9-0.1-10.9c0.8-3.1,2.6-5.1,4.1-6.1c0.7-0.5,1.4-0.7,1.8-0.9c0.4-0.1,0.7-0.2,0.7-0.2
								c0,0.1-1,0.2-2.4,1.2c-1.4,1-3.1,3-3.8,6c-0.8,3-0.4,6.7,0.2,10.7c0.7,4.1,1.2,8.6,1.6,13.3c0.7,9.5,0.5,18.1,0,24.3
								c-0.3,3.1-1.3,5.6-2.5,6.9c-0.6,0.6-1.2,1-1.7,1.2C139.1,217.4,138.9,217.5,138.9,217.5z"/>
						</g>
					</g>
				</g>
				<g>
					<g>
						<g>
							<path class="st8" d="M156.8,151.9C156.5,153,157.3,151,156.8,151.9L156.8,151.9z"/>
						</g>
						<g>
							<path class="st8" d="M155.9,147.5c-0.9-1-2.3-0.6-3.4,0.2c-1.8,1.3-3.1,3.4-4,5.7c-0.9,2.3-1.3,4.9-1.6,7.4
								c-0.2,1.5-0.2,3.2,0.8,4.1c0.7,0.6,1.6,0.5,2.4,0c0.7-0.5,1.3-1.4,1.8-2.2c2-3.3,3.6-6.9,4.9-10.8
								C157,150.8,156.6,148.3,155.9,147.5z"/>
						</g>
					</g>
					<g>
						<g>
							<g>
								<path class="st4" d="M148.5,167.2c2-8.5,5.6-17.3,12.7-22.4c6.3-4.6,15.5-6.4,23.3-5.8c3.8,0.3,8.1,2.2,11.4,4.2
									c4.5,2.7,6.3,8.1,8.3,12.9c4.1,9.7,3.1,22.7,0,26.2l-40.7,19.8c-7-3.9-14.5-9.2-16.1-17
									C146.2,179.8,147.2,172.5,148.5,167.2z"/>
							</g>
							<g>
								<g>
									<path class="st12" d="M163.9,152.1l25.4-6.6c8.2-0.9,13.7,9.1,14.2,17.3c0.6,9.1,1.1,20.2,0,27
										c-2.1,13.7-12.5,16.9-12.5,16.9c0,0,0,11.9-0.1,15.9l-11.9,36.2l-16.9-36.2l-2.6-65.6C159.6,154.5,161.4,152.4,163.9,152.1
										z"/>
								</g>
								<g>
									<g>
										<path class="st4" d="M199,173.8c0,0.9-0.7,1.7-1.7,1.8c-1,0.1-1.8-0.6-1.8-1.6c0-0.9,0.7-1.7,1.7-1.8
											C198.2,172.1,199,172.8,199,173.8z"/>
									</g>
								</g>
								<g>
									<g>
										<path class="st4" d="M201.2,168.5c-0.2,0.2-1.5-0.7-3.4-0.7c-1.9,0-3.3,1-3.5,0.7c-0.1-0.1,0.1-0.5,0.7-1
											c0.6-0.4,1.6-0.9,2.8-0.9c1.2,0,2.2,0.4,2.7,0.9C201.1,168,201.3,168.4,201.2,168.5z"/>
									</g>
								</g>
								<g>
									<g>
										<path class="st4" d="M181.9,173.8c0,0.9-0.7,1.7-1.7,1.8c-1,0.1-1.8-0.6-1.8-1.6c0-0.9,0.7-1.7,1.7-1.8
											C181.1,172.1,181.9,172.8,181.9,173.8z"/>
									</g>
								</g>
								<g>
									<g>
										<path class="st4" d="M182.7,169c-0.2,0.2-1.6-0.7-3.4-0.7c-1.9,0-3.3,1-3.5,0.7c-0.1-0.1,0.1-0.5,0.7-1
											c0.6-0.4,1.6-0.9,2.8-0.9c1.2,0,2.2,0.4,2.7,0.9C182.6,168.5,182.8,168.9,182.7,169z"/>
									</g>
								</g>
								<g>
									<g>
										<path class="st4" d="M189.6,183c0-0.1,1.2-0.3,3.1-0.6c0.5-0.1,0.9-0.2,1-0.5c0.1-0.3-0.1-0.9-0.3-1.4
											c-0.5-1.2-0.9-2.4-1.4-3.7c-2-5.2-3.5-9.5-3.3-9.6c0.2-0.1,2,4.1,4,9.3c0.5,1.3,0.9,2.5,1.4,3.7c0.2,0.5,0.5,1.2,0.3,1.9
											c-0.1,0.4-0.5,0.6-0.8,0.7c-0.3,0.1-0.6,0.1-0.8,0.1C190.8,183,189.6,183.1,189.6,183z"/>
									</g>
								</g>
								<g>
									<path class="st13" d="M191.1,206.8l-0.1,3.4c-13.7,1.4-18.2-8.2-18.2-8.2C181.9,207.4,191.1,206.8,191.1,206.8z"/>
								</g>
								<g>
									<path class="st13" d="M183.4,186.5c0.5-0.9,1.5-1.3,2.5-1.4c1.4-0.1,2.7,0.4,3.6,1.8c0.3,0.4,0.3,1.5,0.2,1.8
										c-0.1,0.3,0,0.2-0.3,0.4c-0.8,0.8-1.7,1.5-2.8,1.8c-1.1,0.3-2.4-0.1-3.1-1.1C182.9,188.7,182.9,187.4,183.4,186.5z"/>
								</g>
								<g>
									<g>
										<path class="st4" d="M184.1,184.3c0.3,0,0.3,2,2.1,3.5c1.8,1.4,3.9,1.2,4,1.5c0,0.1-0.5,0.4-1.4,0.4
											c-0.9,0-2.2-0.2-3.3-1.1c-1.1-0.9-1.5-2.1-1.6-2.9C183.7,184.8,183.9,184.3,184.1,184.3z"/>
									</g>
								</g>
								<g>
									<g>
										<path class="st4" d="M183.5,163c-0.2,0.5-2.1,0.3-4.3,0.6c-2.2,0.2-4,0.9-4.3,0.4c-0.1-0.2,0.2-0.7,0.9-1.2
											c0.7-0.5,1.8-1,3.2-1.1c1.3-0.2,2.5,0,3.4,0.4C183.2,162.3,183.6,162.7,183.5,163z"/>
									</g>
								</g>
								<g>
									<g>
										<path class="st4" d="M200.5,162c-0.3,0.4-1.6,0-3.2,0c-1.6-0.1-2.9,0.3-3.2-0.1c-0.1-0.2,0.1-0.6,0.6-1.1
											c0.6-0.4,1.5-0.7,2.6-0.7c1.1,0,2,0.4,2.6,0.8C200.4,161.4,200.6,161.8,200.5,162z"/>
									</g>
								</g>
								<g>
									<g>
										<path class="st12" d="M163.3,173.6c-0.2-0.1-7.6-2.4-7.5,5.2c0.1,7.6,7.7,6,7.7,5.8C163.5,184.3,163.3,173.6,163.3,173.6z
											"/>
									</g>
								</g>
								<g>
									<g>
										<path class="st13" d="M161.1,181.7c0,0-0.1,0.1-0.4,0.2c-0.2,0.1-0.6,0.2-1,0c-0.8-0.3-1.5-1.6-1.5-2.9
											c0-0.7,0.1-1.4,0.4-1.9c0.2-0.6,0.6-1,1-1c0.4-0.1,0.7,0.1,0.8,0.4c0.1,0.2,0.1,0.4,0.1,0.4c0,0,0.2-0.1,0.1-0.4
											c0-0.2-0.1-0.3-0.3-0.5c-0.2-0.1-0.5-0.2-0.7-0.2c-0.6,0-1.1,0.6-1.4,1.2c-0.3,0.6-0.5,1.3-0.4,2.1c0.1,1.5,0.9,3,2,3.3
											c0.5,0.1,1,0,1.2-0.2C161.1,181.9,161.2,181.7,161.1,181.7z"/>
									</g>
								</g>
							</g>
							<g>
								<g>
									<path class="st1" d="M158.6,184.2c0,0-0.3,0.3-0.3,1c0,0.3,0.1,0.8,0.5,1.1c0.4,0.3,1,0.3,1.5,0.1c0.5-0.2,0.9-0.6,1-1.1
										c0.1-0.5,0-0.9-0.2-1.2c-0.4-0.6-0.9-0.6-0.9-0.6c0,0.1,0.4,0.2,0.6,0.7c0.1,0.3,0.2,0.6,0.1,1c-0.1,0.3-0.4,0.6-0.8,0.8
										c-0.4,0.2-0.8,0.1-1.1,0c-0.3-0.2-0.4-0.5-0.5-0.8C158.5,184.6,158.7,184.2,158.6,184.2z"/>
								</g>
							</g>
							<g>
								<path class="st4" d="M204.2,164.9c-1-2.2-3-3.8-5.1-5c-2.1-1.2-4.4-2.1-6.5-3.3c-4.8-2.8-8.6-7.5-10.2-12.8
									c3.8-1.9,8.4-1.7,12.2,0.2c3.8,1.9,6.7,5.3,8.4,9.1c1.7,3.8,2.4,8.1,2.3,12.3"/>
							</g>
							<g>
								<g>
									<path class="st4" d="M161.6,150c5.6-5.4,16.3-8.3,23.6-5.8c-1.1,6.4-5.9,13.6-10.2,18.5c-4.3,5-6.9,13.6-16.2,10.7
										c-0.6-0.2-1.4,0.4-2,0c-0.5-0.3-0.7-0.9-0.9-1.4C153.5,164.5,155.8,155.5,161.6,150z"/>
								</g>
							</g>
						</g>
						<g>
							<g>
								<path class="st10" d="M158.4,148.8c0,0,0,0.1,0.2,0.3c0.1,0.2,0.3,0.4,0.5,0.7c0.5,0.6,1.2,1.4,2.3,2.2
									c1.1,0.8,2.5,1.6,4.2,2.2c1.7,0.6,3.7,0.9,5.7,0.8c2.1-0.1,4-0.7,5.6-1.5c1.6-0.8,2.9-1.7,3.9-2.7c1-0.9,1.7-1.8,2.1-2.4
									c0.2-0.3,0.3-0.6,0.4-0.7c0.1-0.2,0.1-0.3,0.1-0.3c-0.1-0.1-0.8,1.5-2.8,3.2c-1,0.9-2.3,1.8-3.9,2.6
									c-1.6,0.7-3.5,1.3-5.5,1.4c-2,0.1-3.9-0.2-5.6-0.8c-1.7-0.6-3.1-1.3-4.1-2.1C159.4,150.2,158.4,148.7,158.4,148.8z"/>
							</g>
						</g>
						<g>
							<g>
								<path class="st9" d="M154.7,159.2c0,0,0.1,0.1,0.3,0.3c0.2,0.2,0.4,0.4,0.8,0.7c0.7,0.6,1.9,1.2,3.4,1.8
									c1.5,0.5,3.5,0.9,5.6,0.8c2.2-0.1,4.5-0.6,6.7-1.7c2.2-1.1,4.1-2.6,5.6-4.1c1.5-1.5,2.7-3,3.6-4.4c0.9-1.3,1.6-2.5,2-3.3
									c0.2-0.4,0.4-0.7,0.5-0.9c0.1-0.2,0.2-0.3,0.1-0.3c0,0-0.1,0.1-0.2,0.3c-0.1,0.2-0.3,0.5-0.5,0.9c-0.5,0.8-1.1,1.9-2.1,3.2
									c-0.9,1.3-2.1,2.8-3.6,4.3c-1.5,1.5-3.4,2.9-5.6,4c-2.2,1.1-4.5,1.6-6.6,1.7c-2.1,0.1-4-0.2-5.5-0.7
									c-1.5-0.5-2.7-1.1-3.4-1.7C155.1,159.5,154.7,159.1,154.7,159.2z"/>
							</g>
						</g>
					</g>
					<g>
						<g>
							<path class="st9" d="M161.4,200.9c0,0-0.1,0-0.4-0.2c-0.3-0.1-0.6-0.3-1.1-0.6c-0.9-0.6-2.3-1.5-3.8-2.7
								c-1.5-1.3-3.2-3-4.7-5.1c-1.5-2.2-2.8-4.8-3.6-7.7c-1.7-5.9-1.3-11.5-0.4-15.3c0.5-1.9,1-3.4,1.5-4.5
								c0.2-0.5,0.4-0.9,0.5-1.2c0.1-0.3,0.2-0.4,0.2-0.4c0,0-0.2,0.6-0.6,1.6c-0.4,1-0.9,2.5-1.3,4.5c-0.8,3.8-1.2,9.4,0.5,15.1
								c0.8,2.9,2.1,5.4,3.5,7.6c1.5,2.1,3.1,3.8,4.5,5.1c1.5,1.3,2.8,2.2,3.7,2.9C160.9,200.5,161.4,200.8,161.4,200.9z"/>
						</g>
					</g>
				</g>
			</g>
			<g>
				<g>
					<g>
						<g>
							<g>
								<g>
									<g>
										<path class="st8" d="M272.4,393.1l12.7,23.1c0,0,26.8-6.8,29.6-2.8l-43,27.9l-21.3-35.2L272.4,393.1z"/>
									</g>
								</g>
							</g>
						</g>
						<g class="st5">
							<g>
								<g>
									<g>
										<g>
											<path class="st10" d="M270.4,422.4c-0.7,0.7-0.7,2.1,0,2.8c0.7,0.7,2,0.8,2.8,0c0.7-0.7,0.8-2.3,0-3
												c-0.8-0.7-2.4-0.6-2.9,0.3"/>
										</g>
									</g>
								</g>
							</g>
						</g>
						<g class="st5">
							<g>
								<g>
									<g>
										<path class="st10" d="M271.7,441.4l-2.1-3.6l42.4-25.5c0,0,1.8-0.3,3.1,1.3L271.7,441.4z"/>
									</g>
								</g>
							</g>
						</g>
						<g>
							<g>
								<g>
									<g>
										<g>
											<path class="st4" d="M285.7,415.5c0.1,0.2-0.9,1-1.5,2.3c-0.7,1.3-0.7,2.6-0.9,2.6c-0.2,0.1-0.7-1.4,0.1-3
												C284.2,415.8,285.7,415.3,285.7,415.5z"/>
										</g>
									</g>
								</g>
							</g>
						</g>
						<g>
							<g>
								<g>
									<g>
										<g>
											<path class="st4" d="M291.5,414.7c0.2,0.2-0.5,1.1-0.7,2.4c-0.2,1.3,0.2,2.4,0,2.5c-0.2,0.2-1.1-1-0.8-2.7
												C290.2,415.3,291.4,414.5,291.5,414.7z"/>
										</g>
									</g>
								</g>
							</g>
						</g>
						<g>
							<g>
								<g>
									<g>
										<g>
											<path class="st4" d="M297.4,418.6c-0.2,0.2-1.1-0.7-1.3-2.2c-0.2-1.5,0.6-2.6,0.8-2.5c0.2,0.1,0,1.1,0.1,2.4
												C297.1,417.6,297.6,418.5,297.4,418.6z"/>
										</g>
									</g>
								</g>
							</g>
						</g>
						<g>
							<g>
								<g>
									<g>
										<g>
											<path class="st4" d="M282.3,410.6c0,0.2-1.1,0.5-2.3,1.4c-1.2,0.8-1.9,1.8-2.1,1.6c-0.2-0.1,0.2-1.4,1.6-2.4
												C280.8,410.3,282.3,410.4,282.3,410.6z"/>
										</g>
									</g>
								</g>
							</g>
						</g>
					</g>
					<g class="st11">
						<g>
							<g>
								<g>
									<polygon points="274.9,397.6 277.2,401.8 255.5,414.5 253.3,410.9 									"/>
								</g>
							</g>
						</g>
					</g>
					<g>
						<g>
							<g>
								<g>
									<g>
										<path class="st4" d="M279.6,406c0.1,0.1-0.7,0.7-2.2,1.3c-0.7,0.3-1.7,0.5-2.7,0.7c-0.5,0.1-1.1,0.1-1.7,0.1
											c-0.3,0-0.6,0-1-0.1c-0.4-0.1-0.8-0.6-0.8-1.1c0-0.5,0.3-0.9,0.6-1.1c0.3-0.2,0.6-0.3,0.9-0.4c0.6-0.2,1.1-0.3,1.7-0.3
											c1.1-0.1,2,0,2.8,0.1c1.6,0.3,2.4,0.9,2.4,1c-0.1,0.1-1-0.2-2.5-0.4c-0.7-0.1-1.7-0.1-2.6,0.1c-0.5,0.1-1,0.2-1.5,0.4
											c-0.5,0.2-0.9,0.4-0.9,0.7c0,0.1,0,0.1,0.2,0.2c0.2,0.1,0.4,0.1,0.7,0.1c0.5,0,1.1,0,1.6,0c1-0.1,1.9-0.3,2.6-0.5
											C278.7,406.3,279.5,405.9,279.6,406z"/>
									</g>
								</g>
							</g>
						</g>
					</g>
					<g>
						<g>
							<g>
								<g>
									<g>
										<path class="st4" d="M279.5,406.4c-0.1,0.1-0.9-0.4-1.9-1.8c-0.4-0.7-0.9-1.5-1.1-2.6c-0.1-0.5-0.2-1.1-0.2-1.7
											c0-0.6,0-1.4,0.7-2c0.4-0.3,1-0.2,1.3,0.1c0.3,0.2,0.5,0.4,0.7,0.7c0.4,0.5,0.7,1,0.9,1.5c0.4,1,0.5,2,0.4,2.8
											c-0.2,1.7-0.9,2.4-1,2.4c-0.1-0.1,0.4-0.9,0.4-2.4c0-0.7-0.1-1.6-0.5-2.5c-0.2-0.4-0.5-0.9-0.8-1.2
											c-0.3-0.4-0.7-0.7-0.9-0.5c-0.2,0.1-0.4,0.7-0.3,1.2c0,0.5,0.1,1,0.2,1.5c0.2,1,0.5,1.8,0.9,2.5
											C278.9,405.7,279.6,406.3,279.5,406.4z"/>
									</g>
								</g>
							</g>
						</g>
					</g>
				</g>
				<g>
					<g>
						<g>
							<g>
								<g>
									<g>
										<path class="st8" d="M233.5,438l-1.3,26.4c0,0,27.3,8.2,26.9,14.6l-51.4-0.1l0.3-41.4L233.5,438z"/>
									</g>
								</g>
							</g>
						</g>
						<g class="st5">
							<g>
								<g>
									<g>
										<g>
											<path class="st10" d="M216.4,461.9c-1,0.3-1.7,1.4-1.5,2.4c0.2,1,1.3,1.7,2.3,1.5c1-0.2,1.9-1.5,1.6-2.5
												c-0.3-1-1.7-1.8-2.6-1.3"/>
										</g>
									</g>
								</g>
							</g>
						</g>
						<g class="st5">
							<g>
								<g>
									<g>
										<path class="st10" d="M207.7,478.9l-0.1-4.3l49.1,0.5c0,0,2.4,1.7,2.4,3.8L207.7,478.9z"/>
									</g>
								</g>
							</g>
						</g>
						<g>
							<g>
								<g>
									<g>
										<g>
											<path class="st4" d="M233,464.1c0,0.3-1.3,0.3-2.5,1.1c-1.3,0.8-1.9,1.8-2.1,1.7c-0.2-0.1,0.2-1.5,1.7-2.5
												C231.6,463.6,233.1,463.9,233,464.1z"/>
										</g>
									</g>
								</g>
							</g>
						</g>
						<g>
							<g>
								<g>
									<g>
										<g>
											<path class="st4" d="M238.4,466.4c0.1,0.2-1,0.7-1.9,1.7c-0.9,1-1.1,2.2-1.4,2.1c-0.2,0-0.4-1.4,0.7-2.7
												C236.9,466.2,238.4,466.2,238.4,466.4z"/>
										</g>
									</g>
								</g>
							</g>
						</g>
						<g>
							<g>
								<g>
									<g>
										<g>
											<path class="st4" d="M241.3,472.9c-0.2,0.1-0.6-1.2,0.1-2.6c0.7-1.4,1.8-1.9,1.9-1.7c0.1,0.2-0.6,0.9-1.2,2.1
												C241.7,471.8,241.6,472.9,241.3,472.9z"/>
										</g>
									</g>
								</g>
							</g>
						</g>
						<g>
							<g>
								<g>
									<g>
										<g>
											<path class="st4" d="M232.7,458.1c-0.1,0.2-1.3-0.1-2.7-0.1c-1.4,0-2.5,0.5-2.7,0.3c-0.1-0.2,0.9-1.1,2.6-1.2
												C231.6,457.1,232.8,457.9,232.7,458.1z"/>
										</g>
									</g>
								</g>
							</g>
						</g>
					</g>
					<g class="st11">
						<g>
							<g>
								<g>
									<polygon points="232.6,456.7 232.3,461.9 207.7,461.3 207.7,457 									"/>
								</g>
							</g>
						</g>
					</g>
					<g>
						<g>
							<g>
								<g>
									<g>
										<path class="st4" d="M232.8,452.7c0,0.1-1,0.2-2.6,0c-0.8-0.1-1.7-0.4-2.7-0.9c-0.5-0.2-1-0.5-1.5-0.8
											c-0.2-0.2-0.5-0.3-0.8-0.6c-0.3-0.3-0.4-0.9-0.1-1.3c0.3-0.4,0.7-0.6,1.1-0.6c0.4,0,0.7,0.1,1,0.1
											c0.6,0.1,1.1,0.3,1.6,0.6c1,0.5,1.8,1,2.3,1.6c1.2,1.1,1.6,2.1,1.5,2.1c-0.1,0.1-0.7-0.7-1.9-1.6
											c-0.6-0.5-1.4-0.9-2.3-1.3c-0.5-0.2-0.9-0.4-1.5-0.5c-0.5-0.1-1-0.2-1.1,0.1c-0.1,0.1-0.1,0.1,0.1,0.3
											c0.1,0.1,0.3,0.3,0.6,0.4c0.4,0.3,0.9,0.6,1.3,0.8c0.9,0.5,1.7,0.8,2.5,1C231.9,452.5,232.8,452.6,232.8,452.7z"/>
									</g>
								</g>
							</g>
						</g>
					</g>
					<g>
						<g>
							<g>
								<g>
									<g>
										<path class="st4" d="M232.5,453.1c-0.1,0-0.6-0.9-0.6-2.5c0-0.8,0.1-1.8,0.4-2.8c0.2-0.5,0.4-1,0.7-1.5
											c0.3-0.5,0.7-1.2,1.7-1.3c0.5,0,0.9,0.4,1.1,0.7c0.2,0.3,0.2,0.6,0.3,0.9c0.1,0.6,0.1,1.2,0,1.7c-0.2,1.1-0.6,2-1.1,2.6
											c-1,1.3-2.1,1.6-2.1,1.5c-0.1-0.1,0.8-0.6,1.6-1.9c0.4-0.6,0.7-1.4,0.8-2.4c0.1-0.5,0.1-1,0-1.5c-0.1-0.5-0.3-1-0.5-0.9
											c-0.3,0-0.7,0.4-0.9,0.8c-0.3,0.5-0.5,0.9-0.7,1.4c-0.3,0.9-0.5,1.8-0.5,2.6C232.4,452.1,232.6,453,232.5,453.1z"/>
									</g>
								</g>
							</g>
						</g>
					</g>
				</g>
				<g>
					<g>
						<path class="st3" d="M158.9,212.7l2.9-1.2c-0.9-1.4,6,12,15.3,12.1c12.8,0.1,14.1-12.6,14.1-12.6l0.7,0.1l21,21.8l2.8,61
							l-2.3,7.8L168.2,318l-15.7-31.3l-1.4-19.3L158.9,212.7z"/>
					</g>
					<g>
						<path class="st8" d="M160.3,212c0,0-25.6,5.8-29.8,16.8c-1.8,4.8-2.4,82.7-2.4,82.7s-3.2,7.1-3,21.8
							c0.2,14.1,9.5,23.2,21.2,25.9c0,0,3.1-22.2,15.3-33.3c11.6-10.5,12.7-9.2,12.7-9.2l-2.8-25.4l-2.9-22.1
							c-2.9-15.8,0.4-32.9-5-48.1L160.3,212z"/>
					</g>
					<g>
						<path class="st8" d="M214.4,227.5l17.5,76.9l-18.8-4.3l-6-46.1l-15.4-43c0,0,2.6,0.3,5.9,0.9
							C205.9,213.1,212.5,219.4,214.4,227.5z"/>
					</g>
					<g class="st11">
						<g>
							<path d="M128.2,324.7c-0.1,0.9,0.5,1.8,1.2,2.4c0.8,0.5,1.7,0.8,2.6,0.9c4.3,0.8,8.8-0.1,13-1.4c4.8-1.6,9.3-3.8,13.9-6
								c6.6-3.3,8.7-4.8,15-8.7c-6.5,2.7-8.7,3-15.5,4.6c-10.2,2.3-20.9,3.5-30.2,8.4"/>
						</g>
					</g>
					<g>
						<g>
							<g>
								<g>
									<g>
										<path class="st12" d="M165.8,295.7l11.4-2.5c0,0,13.1-7.3,16.1-7.3c2.7,0,13.1,4.8,15.2,5.7c0.2,0.1,0.4,0.3,0.5,0.5l0,0
											c0.5,1,0.2,2.2-0.7,2.8l-0.2,0.1l0.1,0.3c0.2,0.3,0.3,0.7,0.3,1.1c0.1,1.3-1.6,2-2.4,1l0.5,0.6c0.2,0.2,0.3,0.5,0.3,0.8
											l0.1,0.6c0.1,0.6-0.3,1.3-0.8,1.6l0,0c-0.5,0.3-1.2,0.2-1.7-0.2c-1.4-1.1-4.4-3.3-6.2-3.4c-1.6,0-4.2,0.4-5.8,0.6
											c-0.8,0.1-1.4,0.7-1.6,1.5l0,0c1.1-0.1,8.9,2.5,11.7,3.4c0.9,0.3,1.6,0.9,1.8,1.8c0.2,0.8,0,1.7-1.7,1.6
											c-3.5-0.2-10.1-2.1-10.1-2.1s-3.3-0.4-5.1,1.4c-2.6,2.5-3.8,3.5-6.4,3.1c-2.6-0.4-4.6-1.3-4.6-1.3l-4.1,0.8L165.8,295.7z"
											/>
									</g>
								</g>
							</g>
						</g>
						<g>
							<g>
								<g>
									<g>
										<g>
											<path class="st13" d="M189.9,293.6c0,0.1,0.9-0.4,2.6-0.8c1.6-0.4,3.9-0.6,6.4,0c2.5,0.6,4.4,1.9,5.7,2.9
												c1.3,1.1,1.9,1.9,1.9,1.9c0,0-0.1-0.2-0.4-0.6c-0.3-0.4-0.7-0.9-1.4-1.4c-1.2-1.1-3.2-2.4-5.7-3c-2.5-0.6-4.9-0.4-6.5,0
												c-0.8,0.2-1.4,0.4-1.9,0.6C190.1,293.4,189.9,293.6,189.9,293.6z"/>
										</g>
									</g>
								</g>
							</g>
						</g>
						<g>
							<g>
								<g>
									<g>
										<g>
											<path class="st13" d="M190.8,290c0,0.1,0.9-0.6,2.7-0.9c1.7-0.4,4.2-0.2,6.6,0.8c2.5,1,4.4,2.5,5.8,3.5
												c0.7,0.5,1.2,0.9,1.6,1.3c0.4,0.3,0.6,0.5,0.6,0.4c0,0-0.2-0.2-0.6-0.5c-0.4-0.3-0.9-0.8-1.6-1.3
												c-1.4-1.1-3.3-2.6-5.8-3.6c-2.5-1-5.1-1.1-6.8-0.7c-0.9,0.2-1.5,0.5-2,0.7c-0.2,0.1-0.4,0.2-0.5,0.3
												C190.9,289.9,190.8,290,190.8,290z"/>
										</g>
									</g>
								</g>
							</g>
						</g>
					</g>
					<g>
						<path class="st8" d="M146,231.2l-5.7,61.4h-1.6l25.9,0.5l9.4,18.8c0,0-33.9,16.5-48.4,12c-17.2-5.4-12.3-24.6-12.2-31.4
							c0-1.2,9.7-58.2,19-66.8C132.3,225.7,144.6,226.5,146,231.2z"/>
					</g>
					<g>
						<g>
							<g>
								<path class="st4" d="M146.8,248.3c0,0,0,0.6-0.1,1.7c-0.2,1.2-0.4,2.7-0.6,4.5c-0.6,3.9-1.4,9-2.2,14.8
									c-0.9,5.8-1.6,11-2.2,14.8c-0.3,1.8-0.5,3.3-0.6,4.5c-0.2,1.1-0.3,1.6-0.3,1.6s0-0.6,0.1-1.7c0.1-1.1,0.3-2.6,0.5-4.5
									c0.4-3.8,1.1-9,2-14.8c0.9-5.8,1.7-11,2.4-14.8c0.3-1.8,0.6-3.3,0.8-4.5C146.6,248.9,146.7,248.3,146.8,248.3z"/>
							</g>
						</g>
						<g>
							<g>
								<path class="st4" d="M144.8,221.8c0,0,0.2,0.2,0.5,0.6c0.3,0.4,0.7,1.1,1.1,1.9c0.4,0.8,0.8,1.9,1.2,3.1
									c0.3,1.2,0.6,2.5,0.8,4c0.3,2.9,0.2,5.5,0,7.3c-0.2,1.9-0.4,3-0.4,3c-0.1,0,0-1.2,0.1-3c0.1-1.9,0.1-4.4-0.2-7.2
									c-0.2-1.4-0.4-2.7-0.7-3.9c-0.3-1.2-0.7-2.2-1.1-3.1C145.3,222.9,144.7,221.9,144.8,221.8z"/>
							</g>
						</g>
						<g>
							<g>
								<path class="st4" d="M125.4,323.9c0,0,0.1,0,0.3,0c0.2,0,0.4,0.1,0.7,0.2c0.6,0.2,1.6,0.3,2.9,0.4c2.5,0.2,6.1-0.1,10.6-1
									c2.2-0.5,4.6-1,7.2-1.6c2.5-0.7,5.2-1.7,8-2.7c5.6-2.1,11.6-4.6,18-7.2c0.3-0.1,0.5-0.2,0.8-0.3l-0.1,0.4
									c-3.4-6.8-6.5-13.2-9.3-18.8l0.2,0.1c-4.2,0-8-0.3-11.4-0.4c-3.4-0.1-6.4-0.2-8.8-0.2c-2.5,0-4.4,0.1-5.7,0.3
									c-1.3,0.1-2,0.3-2,0.2c0,0,0.2-0.1,0.5-0.1c0.3-0.1,0.8-0.2,1.5-0.3c1.3-0.2,3.3-0.3,5.7-0.4c2.5-0.1,5.4,0,8.8,0.1
									c3.4,0.1,7.2,0.3,11.4,0.3l0.1,0l0.1,0.1c2.8,5.6,6,12,9.4,18.8l0.1,0.3l-0.3,0.1c-0.3,0.1-0.5,0.2-0.8,0.3
									c-6.3,2.7-12.4,5.1-18,7.2c-2.8,1-5.5,2-8.1,2.7c-2.6,0.6-5,1.1-7.2,1.5c-4.4,0.9-8.1,1.1-10.6,0.9
									C126.7,324.5,125.4,323.9,125.4,323.9z"/>
							</g>
						</g>
						<g>
							<g>
								<path class="st4" d="M143.3,292.7c-0.1,0.1-0.6-0.6-1.8-1.3c-1.2-0.7-2.9-1.5-5-1.8c-2.1-0.3-4-0.2-5.4-0.2
									c-1.4,0.1-2.3,0.1-2.3,0c0-0.1,0.8-0.2,2.2-0.4c1.4-0.1,3.4-0.3,5.5,0c2.2,0.3,4,1.1,5.2,2
									C142.8,291.9,143.3,292.7,143.3,292.7z"/>
							</g>
						</g>
						<g class="st11">
							<g>
								<path d="M142.8,292.7c-3.7-0.6-7.5-0.3-11,0.8c-2.2,0.7-4.4,1.7-5.6,3.6c-0.4,0.6-0.6,1.5-0.1,2c0.5,0.4,1.2,0.3,1.8,0
									c1.3-0.5,2.3-1.5,3.4-2.3c1.7-1.3,3.6-2.5,5.7-3.3c2.1-0.8,4.3-1.2,6.5-0.8"/>
							</g>
						</g>
						<g class="st11">
							<g>
								<path d="M141.7,291.3c-0.8-2.2-3.6-4.2-5.4-4.8c-4.2-1.4-9-2-12.7,0.4c-0.4,0.3-0.8,0.6-0.8,1.1c0,0.7,0.7,1.1,1.3,1.2
									c2.6,0.7,5.4,0.3,8.1,0c2.7-0.3,5.6-0.3,8,1.1"/>
							</g>
						</g>
						<g class="st11">
							<g>
								<path d="M140.8,288.6c5.4-11,7.8-25.4,5.6-38.2L140.8,288.6z"/>
							</g>
						</g>
					</g>
				</g>
				<g>
					<g>
						<path class="st4" d="M146.2,359.2c0,0,9.3,6.1,27.7,6.1c18.4,0,22.6-1.3,22.6-1.3l17.2-15.6l37.8,66.2c0,0,30-18.6,30.2-18
							c0.4,0.4-28-62.7-34.2-73.6c-2-3.5-3.9-6.1-7-10.2c-6.3-8.2-16.8-11.9-26.8-9.8c-5.1,1.1-10.7,2.6-15.7,4.4
							c-13.7,5-25.4,8.4-35.3,17.2C151.2,334.9,144.2,354.6,146.2,359.2z"/>
					</g>
					<g>
						<path class="st4" d="M209.4,340.8c0,0-13.6,9.4-13.2,17c0.3,6.3,8.7,99.3,8.7,99.3l33.5-0.6l2.3-60.9L209.4,340.8z"/>
					</g>
					<g>
						<g>
							<path class="st9" d="M243.4,400.4c0,0-0.1-0.1-0.2-0.2c-0.1-0.2-0.2-0.4-0.4-0.7c-0.4-0.6-0.9-1.5-1.5-2.7
								c-1.3-2.4-3.1-5.7-5.4-9.8c-4.5-8.3-10.8-19.8-17.7-32.5c-2.5-4.5-4.8-8.9-7-13l0.3,0.1c-5.4,0.7-9.7,3.9-12.1,7.7
								c-1.2,1.9-1.9,3.9-2.3,5.8c-0.4,1.9-0.4,3.8-0.4,5.4c0.1,3.3,0.4,6,0.5,7.8c0,0.9,0.1,1.6,0.1,2.1c0,0.5,0,0.7,0,0.7
								c0,0,0-0.2-0.1-0.7c0-0.5-0.1-1.2-0.2-2.1c-0.1-1.8-0.5-4.4-0.6-7.8c-0.1-1.7,0-3.5,0.3-5.5c0.3-2,1.1-4.1,2.3-6
								c2.4-3.9,6.9-7.3,12.4-8l0.2,0l0.1,0.2c2.2,4.1,4.6,8.4,7.1,13c6.9,12.7,13.1,24.2,17.6,32.5c2.2,4.1,4,7.5,5.3,9.9
								c0.6,1.1,1.1,2,1.4,2.7c0.1,0.3,0.3,0.5,0.4,0.7C243.3,400.3,243.4,400.4,243.4,400.4z"/>
						</g>
					</g>
					<g>
						<g>
							<path class="st9" d="M215.4,328.2c0.1,0.1-2.4,2.5-3.6,6.5c-1.2,4-0.5,7.4-0.7,7.4c-0.1,0-0.3-0.8-0.5-2.2
								c-0.1-1.4,0-3.3,0.6-5.3c0.6-2,1.6-3.7,2.5-4.8C214.7,328.7,215.4,328.1,215.4,328.2z"/>
						</g>
					</g>
					<g>
						<g>
							<path class="st9" d="M208.4,325.6c0.1,0-0.2,1-0.4,2.5c-0.2,1.5-0.3,3.7,0.2,6c0.4,2.3,1.3,4.3,2,5.7
								c0.7,1.4,1.3,2.1,1.3,2.2c0,0-0.7-0.7-1.6-2c-0.8-1.3-1.8-3.4-2.2-5.7c-0.4-2.4-0.3-4.6,0-6.2
								C207.9,326.5,208.3,325.6,208.4,325.6z"/>
						</g>
					</g>
				</g>
				<g>
					<g>
						<path class="st4" d="M182.3,282.9c-0.1-0.1,0.9-1.2,2.2-3.3c0.7-1.1,1.3-2.4,2-3.9c0.6-1.5,1.2-3.2,1.7-5.1
							c0.4-1.8,0.6-3.6,0.7-5.3c0.1-1.6,0-3.1-0.1-4.3c-0.2-2.5-0.6-4-0.5-4c0,0,0.2,0.4,0.3,1c0.1,0.3,0.2,0.8,0.3,1.2
							c0.1,0.5,0.2,1,0.3,1.7c0.2,1.2,0.3,2.7,0.2,4.4c-0.1,1.7-0.3,3.5-0.7,5.4c-0.4,1.9-1.1,3.6-1.7,5.1c-0.7,1.5-1.4,2.8-2.1,3.9
							c-0.3,0.5-0.7,1-1,1.4c-0.3,0.4-0.6,0.7-0.8,1C182.6,282.6,182.3,282.9,182.3,282.9z"/>
					</g>
				</g>
			</g>
		</g>
		<g>
			<path class="st8" d="M213,223.5c0,0,36.3,62.3,37.1,67.1c0.6,3.6-0.5,13.7-3.8,15c-9.1,3.7-19.6-0.6-29.2-7.2l-1.4-1L213,223.5z"
				/>
		</g>
		<g>
			<g>
				<path class="st9" d="M53.3,214.8c0,0,5.7-3.3,7,5.9c1.4,9.2,10.7,76.7,10.7,76.7l58-0.5c0,0,12.3-0.5,20.6,24.5
					c5.8,17.5,11.8,77,11.8,77l-1.1,43.1l-105,0c0,0-3.2-90.3-3.8-130.4S49.9,227.1,53.3,214.8z"/>
			</g>
			<g>
				<g>
					<path class="st4" d="M58.6,214.2c0,0,0.1,0.1,0.3,0.3c0.2,0.2,0.5,0.5,0.9,0.9c0.7,0.8,1.6,2.3,1.8,4.4
						c0.5,4.2,1.2,10.3,2.1,17.8c1.9,15.1,4.5,36.2,7.4,59.9l0,0.2l0.2,0c3.9-0.1,8-0.2,12.1-0.3c13.1-0.2,25.6-0.3,36.9,0
						c2.8,0.1,5.6,0.2,8.3,0.4c0.7,0.1,1.3,0.1,2,0.2c0.7,0.1,1.3,0.2,1.9,0.3c1.3,0.1,2.4,0.6,3.5,1.3c2,1.5,3.6,3.4,4.9,5.4
						c1.4,1.9,2.5,3.9,3.5,5.8c4.1,7.7,6.5,14.4,7.9,19.1c0.7,2.3,1.1,4.2,1.3,5.5c0.1,0.6,0.1,1.1,0.2,1.5c0,0.3,0,0.5,0,0.5
						s0-0.2,0-0.5c0-0.3,0-0.8-0.1-1.5c-0.2-1.3-0.6-3.2-1.2-5.5c-0.7-2.4-1.6-5.2-2.9-8.5c-1.3-3.2-2.8-6.9-4.9-10.8
						c-1-1.9-2.2-3.9-3.5-5.9c-1.4-2-2.9-3.9-5-5.5l-0.8-0.5c-0.3-0.2-0.6-0.3-0.9-0.4c-0.3-0.1-0.6-0.2-1-0.3
						c-0.3-0.1-0.6-0.1-1-0.2c-0.6-0.1-1.3-0.2-2-0.3c-0.7-0.1-1.3-0.1-2-0.2c-2.7-0.2-5.5-0.3-8.3-0.4c-11.3-0.4-23.8-0.3-36.9-0.1
						c-4.2,0.1-8.2,0.2-12.1,0.3l0.3,0.2c-3-23.8-5.7-44.8-7.6-59.9c-1-7.5-1.8-13.6-2.3-17.8c-0.2-2.1-1.2-3.6-1.9-4.4
						C59.1,214.4,58.6,214.2,58.6,214.2z"/>
				</g>
			</g>
			<g>
				<g>
					<path class="st4" d="M134.6,302c0,0-0.1,0-0.4,0.1c-0.3,0-0.6,0.1-1.1,0.2c-1,0.2-2.4,0.6-4.1,1.3c-1.7,0.7-3.8,1.9-5.8,3.6
						c-1.1,0.8-2,1.9-3,3.1c-0.4,0.6-0.9,1.3-1.3,1.9c-0.1,0.2-0.2,0.3-0.3,0.5l-0.3,0.5c-0.2,0.4-0.4,0.7-0.6,1.1
						c-0.2,0.4-0.4,0.8-0.6,1.1c-0.2,0.4-0.3,0.8-0.5,1.2c-0.3,0.8-0.6,1.7-0.9,2.5c-0.4,1.8-0.9,3.6-1.1,5.6c-0.1,1-0.2,2-0.3,3
						c0,1,0,2.1,0,3.1c-0.1,2.1,0.1,4.3,0.2,6.5c0.4,8.9,1,18.7,1.8,29c0.9,11.6,1.9,22.6,2.9,32.2l-0.2-0.2
						c12.6,0.1,23.2,0.2,30.6,0.3c3.7,0,6.6,0.1,8.7,0.1c1,0,1.7,0,2.3,0c0.2,0,0.4,0,0.6,0c0.1,0,0.2,0,0.2,0c0,0-0.1,0-0.2,0
						c-0.2,0-0.3,0-0.6,0c-0.5,0-1.3,0-2.3,0c-2,0-5,0-8.7,0c-7.5,0-18.1,0-30.6-0.1l-0.2,0l0-0.2c-1-9.6-2-20.6-2.9-32.2
						c-0.8-10.3-1.4-20.1-1.8-29c-0.1-2.2-0.2-4.4-0.2-6.5c0-1.1,0-2.1,0-3.1c0.1-1,0.2-2,0.3-3c0.1-2,0.7-3.9,1.1-5.7
						c0.3-0.9,0.6-1.7,0.9-2.6c0.2-0.4,0.3-0.8,0.5-1.2c0.2-0.4,0.4-0.8,0.6-1.1c0.2-0.4,0.4-0.8,0.6-1.1l0.3-0.5
						c0.1-0.2,0.2-0.3,0.3-0.5c0.5-0.7,0.9-1.3,1.4-1.9c1-1.1,2-2.3,3-3.1c2.1-1.8,4.1-2.9,5.9-3.6c1.8-0.7,3.2-1.1,4.2-1.2
						c0.5-0.1,0.9-0.1,1.1-0.2C134.4,302,134.6,302,134.6,302z"/>
				</g>
			</g>
			<g>
				<g>
					<path class="st4" d="M133.9,442c-0.1,0-0.3-9.4-0.3-20.9c0-11.6,0.1-20.9,0.3-20.9s0.3,9.4,0.3,20.9
						C134.2,432.6,134.1,442,133.9,442z"/>
				</g>
			</g>
		</g>
		<g>
			<g>
				<g>
					<path class="st1" d="M264.4,259.9l-59.1,5.3c-0.5,0-1,0.4-1.2,1L191,308.4c-0.1,0.4-0.4,0.7-0.8,0.9l-22.7,6.2
						c-0.5,0.2-0.9,0.7-0.9,1.2c0,0.9,0.8,1.6,1.7,1.4l24.4-5.2l54.9-6.8c0.5-0.1,0.9-0.4,1.1-0.8l17.1-43.4
						C266.1,260.8,265.4,259.8,264.4,259.9z"/>
				</g>
				<g>
					<g>
						<path class="st4" d="M264.4,259.9c0,0,0.2-0.1,0.5,0c0.3,0.1,0.9,0.4,1,1.1c0.1,0.4-0.1,0.7-0.2,1.1c-0.2,0.4-0.3,0.8-0.5,1.3
							c-0.4,0.9-0.8,2-1.3,3.2c-1.9,4.9-4.7,12-8.1,20.8c-1.7,4.4-3.6,9.3-5.7,14.5c-0.3,0.7-0.5,1.3-0.8,2l-0.4,1
							c-0.1,0.3-0.4,0.8-0.7,1c-0.2,0.1-0.4,0.2-0.6,0.2l-0.6,0.1l-1.1,0.1c-0.7,0.1-1.5,0.2-2.2,0.3c-3,0.4-6.1,0.8-9.2,1.2
							c-12.7,1.6-26.8,3.4-41.8,5.2l0,0c-4.2,0.9-8.4,1.8-12.7,2.7c-2.2,0.5-4.3,0.9-6.5,1.4c-1.1,0.2-2.2,0.5-3.3,0.7l-1.6,0.3
							c-0.3,0.1-0.6,0.1-0.9,0.1c-0.3-0.1-0.6-0.2-0.9-0.5c-0.4-0.4-0.5-1-0.4-1.5c0.1-0.5,0.5-1,1-1.1l0,0l0,0
							c7.8-2.1,15.3-4.2,22.7-6.2l0,0c0.4-0.1,0.6-0.4,0.7-0.9l0.4-1.3c0.3-0.9,0.6-1.8,0.8-2.7c0.6-1.8,1.1-3.5,1.7-5.3
							c1.1-3.5,2.2-6.9,3.2-10.3c2.1-6.7,4.1-13.2,6-19.3c0.2-0.8,0.5-1.5,0.7-2.3c0.1-0.4,0.2-0.7,0.4-1.2c0.2-0.4,0.7-0.7,1.1-0.7
							c1.6-0.1,3.1-0.3,4.6-0.4c3-0.3,5.9-0.5,8.7-0.8c5.6-0.5,10.8-1,15.6-1.4c9.5-0.8,17-1.5,22.3-1.9c2.6-0.2,4.6-0.4,6-0.5
							c0.7-0.1,1.2-0.1,1.5-0.1C264.2,259.9,264.4,259.9,264.4,259.9s-0.2,0-0.5,0.1c-0.4,0-0.9,0.1-1.5,0.2c-1.4,0.1-3.4,0.3-6,0.6
							c-5.2,0.5-12.8,1.2-22.2,2.1c-4.7,0.4-9.9,0.9-15.5,1.4c-2.8,0.3-5.7,0.5-8.7,0.8c-1.5,0.1-3,0.3-4.6,0.4
							c-0.3,0-0.6,0.2-0.8,0.5c-0.2,0.3-0.2,0.7-0.4,1.1c-0.2,0.8-0.5,1.5-0.7,2.3c-1.9,6.1-3.9,12.6-6,19.3
							c-1,3.4-2.1,6.8-3.2,10.3c-0.5,1.8-1.1,3.5-1.6,5.3c-0.3,0.9-0.6,1.8-0.8,2.7l-0.4,1.3c-0.1,0.5-0.5,1-1.1,1.2l0,0l0,0
							c-7.3,2-14.9,4.1-22.7,6.2l0,0c-0.3,0.1-0.6,0.4-0.7,0.8c-0.1,0.4,0,0.7,0.3,1c0.2,0.2,0.4,0.3,0.6,0.3c0.2,0.1,0.4,0,0.7-0.1
							l1.6-0.3c1.1-0.2,2.2-0.5,3.3-0.7c2.2-0.5,4.3-0.9,6.5-1.4c4.3-0.9,8.5-1.8,12.7-2.7l0,0l0,0c15-1.9,29.1-3.6,41.8-5.2
							c3.2-0.4,6.3-0.8,9.3-1.1c0.7-0.1,1.5-0.2,2.2-0.3l1.1-0.1c0.4-0.1,0.7-0.1,1-0.2c0.3-0.2,0.4-0.4,0.6-0.8l0.4-1
							c0.3-0.7,0.5-1.3,0.8-2c2.1-5.2,4-10.1,5.7-14.5c3.5-8.8,6.3-15.9,8.3-20.7c0.5-1.2,0.9-2.3,1.3-3.2c0.2-0.5,0.4-0.9,0.5-1.3
							c0.2-0.4,0.3-0.7,0.3-1.1c-0.1-0.7-0.6-1-0.9-1.1C264.6,259.9,264.4,259.9,264.4,259.9z"/>
					</g>
				</g>
			</g>
			<g>
				<g>
					<path class="st4" d="M207.5,265c0,0,0,0.2-0.1,0.5c-0.1,0.4-0.2,0.8-0.4,1.4c-0.3,1.2-0.8,3-1.5,5.2
						c-1.3,4.3-3.1,10.3-5.2,16.9c-2.1,6.5-4,12.5-5.4,16.9c-0.7,2.1-1.2,3.8-1.6,5.1c-0.2,0.6-0.3,1-0.5,1.4
						c-0.1,0.3-0.2,0.5-0.2,0.5c0,0,0-0.2,0.1-0.5c0.1-0.4,0.2-0.8,0.4-1.4c0.3-1.2,0.8-3,1.5-5.2c1.3-4.3,3.1-10.3,5.2-16.9
						c2.1-6.5,4-12.5,5.4-16.9c0.7-2.1,1.2-3.8,1.6-5.1c0.2-0.6,0.3-1,0.5-1.4C207.4,265.2,207.5,265,207.5,265z"/>
				</g>
			</g>
			<g>
				<path class="st10" d="M230.2,282.3c-0.9,0-1.5,0.2-2.3,1.1c-0.6,0.6-1,1.5-0.6,2.3c0.3,0.6,0.9,0.9,1.5,1
					c0.6,0.1,1.2-0.2,1.8-0.5c0.7-0.4,1.4-1.2,1.4-2C232,283.3,231.2,282.2,230.2,282.3z"/>
			</g>
		</g>
		<g>
			<g>
				<path class="st4" d="M223,263.3c0,0-0.2-0.4-0.5-1.2c-0.3-0.9-0.7-2.1-1.1-3.4c-1-2.9-2.3-6.9-4-11.2c-1.7-4.4-3.3-8.2-4.5-11.1
					c-0.6-1.3-1.1-2.4-1.4-3.3c-0.3-0.8-0.5-1.2-0.5-1.2c0,0,0.3,0.4,0.7,1.2c0.4,0.8,0.9,1.9,1.6,3.3c1.3,2.8,3,6.7,4.7,11
					c1.7,4.4,3,8.4,3.9,11.3c0.4,1.5,0.8,2.7,1,3.5C222.9,262.9,223,263.3,223,263.3z"/>
			</g>
		</g>
	</g>
</g>
<g id="Floor">
	<g>
		<g>
			<path class="st4" d="M468,479.2c0,0.1-97.2,0.3-217,0.3c-119.9,0-217-0.1-217-0.3c0-0.1,97.1-0.3,217-0.3
				C370.8,478.9,468,479,468,479.2z"/>
		</g>
	</g>
</g>
</svg>
